<?xml version="1.0" encoding="utf-8"?>
<!-- Generator: Adobe Illustrator 17.1.0, SVG Export Plug-In . SVG Version: 6.00 Build 0)  -->
<!DOCTYPE svg PUBLIC "-//W3C//DTD SVG 1.1//EN" "http://www.w3.org/Graphics/SVG/1.1/DTD/svg11.dtd">
<svg version="1.1" id="Слой_1" xmlns="http://www.w3.org/2000/svg" xmlns:xlink="http://www.w3.org/1999/xlink" x="0px" y="0px"
	 width="124.7px" height="133.3px" viewBox="0 0 124.7 133.3" enable-background="new 0 0 124.7 133.3" xml:space="preserve">
<g>
	<g>
		<g opacity="0.18">
			<defs>
				<path id="SVGID_1511_" opacity="0.18" d="M-232.2,125.5c0,3.9-3.1,7-7,7h-449.7c-3.9,0-7-3.1-7-7v-554.1c0-3.9,3.1-7,7-7h449.7
					c3.9,0,7,3.1,7,7V125.5z"/>
			</defs>
			<clipPath id="SVGID_1_">
				<use xlink:href="#SVGID_1511_"  overflow="visible"/>
			</clipPath>
			<g clip-path="url(#SVGID_1_)">
				<g>
					<linearGradient id="SVGID_3_" gradientUnits="userSpaceOnUse" x1="85.2322" y1="28.1384" x2="150.0838" y2="28.1384">
						<stop  offset="0" style="stop-color:#D1DBDD"/>
						<stop  offset="1" style="stop-color:#EAEDF0"/>
					</linearGradient>
					<polygon fill="none" stroke="url(#SVGID_3_)" stroke-miterlimit="10" points="149.5,17.4 148.6,18.4 148,18.4 145.2,11.2 
						144.3,11 143.3,8.5 141.9,10.3 143.1,13.3 142.8,14.6 145.7,22.2 144.8,23.2 144.2,23.1 141.4,16 140.5,15.8 139.5,13.3 
						138,15.1 139.2,18.2 138.9,19.5 141.9,27.1 141,28.1 140.4,28 137.5,20.9 136.7,20.7 135.7,18.1 134.2,19.9 135.4,22.9 
						135.1,24.3 138.1,31.9 137.2,32.9 136.6,32.8 133.7,25.6 132.9,25.4 131.9,22.8 130.4,24.6 131.7,27.8 131.4,29.2 134.3,36.7 
						133.5,37.7 132.8,37.7 130,30.5 129.1,30.3 128.1,27.6 126.6,29.4 127.9,32.6 127.6,33.9 130.5,41.5 129.7,42.5 129,42.5 
						126.2,35.3 125.3,35.1 124.3,32.4 122.8,34.2 124.1,37.5 123.8,38.8 126.7,46.4 125.9,47.4 125.2,47.3 122.4,40.2 121.5,39.9 
						120.4,37.2 119,38.9 120.3,42.2 120,43.6 122.9,51.1 122.1,52.2 121.4,52.1 118.6,44.9 117.7,44.7 116.6,41.9 115.2,43.7 
						116.5,47.1 116.2,48.5 119.2,56 118.3,57 117.6,57 114.8,49.8 114,49.6 112.8,46.7 111.4,48.5 112.7,51.9 112.4,53.2 
						115.4,60.8 114.5,61.8 113.9,61.7 111,54.6 110.2,54.4 109,51.4 105.2,56.2 93.8,54.5 95.1,57.9 94.2,59 93.6,58.9 91.7,54.1 
						89,53.7 85.7,49.8 85.8,45.6 126.6,-5.5 142.9,-3.1 146.8,1.2 146.1,5 145.7,5.5 146.9,8.5 146.6,9.9 					"/>
					<linearGradient id="SVGID_4_" gradientUnits="userSpaceOnUse" x1="-1.686" y1="-3.1139" x2="49.1222" y2="-3.1139">
						<stop  offset="0" style="stop-color:#D1DBDD"/>
						<stop  offset="1" style="stop-color:#EAEDF0"/>
					</linearGradient>
					<path fill="none" stroke="url(#SVGID_4_)" stroke-miterlimit="10" d="M48.4-37.7L37.4-21.3c5.2,5,0.7,10.5-2.1,12.8
						c-1.9,1.5-3.1,3-3.9,4.2c-0.8,1.2-1.7,2.9-2.4,5.2c-1.1,3.5-4.6,9.8-11.4,6.6L0.7,32.6c-0.3,0.5-0.9,0.6-1.4,0.3
						c-0.3-0.2-0.4-0.5-0.4-0.8c0-0.2,0.1-0.4,0.2-0.6L15.9,6.3c-5-5-0.5-10.4,2.2-12.7c1.9-1.5,3.1-3,3.9-4.2
						c0.8-1.2,1.7-2.9,2.4-5.2c1.1-3.4,4.6-9.7,11.2-6.7l11.1-16.4c0.3-0.5,0.9-0.6,1.4-0.3c0.3,0.2,0.4,0.5,0.4,0.8
						C48.6-38.1,48.6-37.9,48.4-37.7z"/>
					<linearGradient id="SVGID_5_" gradientUnits="userSpaceOnUse" x1="-22.0522" y1="82.243" x2="26.1411" y2="82.243">
						<stop  offset="0" style="stop-color:#D1DBDD"/>
						<stop  offset="1" style="stop-color:#EAEDF0"/>
					</linearGradient>
					<path fill="none" stroke="url(#SVGID_5_)" stroke-miterlimit="10" d="M25,66.9l-10.6,15v0l0,0c0,0-0.1,0.1-0.4,0.2c0,0,0,0,0,0
						c-1.7,0.9-1.8,2.5-1.8,2.8l0,0l0,0c0,0,0,0,0,0s0,0,0,0l-3,4.3c0,0-2.1,1.1-5.6,0.3l-16.2,22.9l-1.2-0.9L2,89.2
						c-1.5-0.5-3.2-1.3-5.1-2.6c-1.4-1-2.4-1.9-3.3-2.9c-0.3-0.3-0.5-0.6-0.7-0.9l-13,18.1l-1.2-0.9L-8,81.5
						c-2.1-3.2-1.9-5.8-1.9-5.8l3-4c0-0.2,0-0.3,0-0.3s2-0.6,2.2-2.3c0-0.5,0-0.8,0-0.8L6.1,53.5l0,0c2-2.8,7.8-2,13,1.7
						c1.2,0.8,2.2,1.7,3.1,2.7C25.3,61.1,26.5,64.7,25,66.9z"/>
					<linearGradient id="SVGID_7_" gradientUnits="userSpaceOnUse" x1="31.9457" y1="106.0431" x2="77.2732" y2="106.0431">
						<stop  offset="0" style="stop-color:#D1DBDD"/>
						<stop  offset="1" style="stop-color:#EAEDF0"/>
					</linearGradient>
					<path fill="none" stroke="url(#SVGID_7_)" stroke-miterlimit="10" d="M76.7,92.9l-9.9-19.5L65,73.2l-3,4.6c0,0,1.1,3-2.1,3.1
						l-3.1,4.8l-5.6-0.3l-8,12.2l1.7,3.3l-1.9,3l0,1.6l-10.6,16.5l0.3,2l0.4-0.6l0.2,1l10.9-17.1l1,0l1.6-2.5l1.5,2.8l-2,3.1l0,1.6
						l-10.6,16.5l0.3,2l0.4-0.6l0.2,1l10.9-17.1l1,0l1.7-2.6l1.4,2.8l-2.1,3.2l0,1.6l-10.6,16.5l0.3,2l0.4-0.6l0.2,1L51,120.9l1,0
						l2.4-3.7l6.4,0.2l8-12.3l3-4.7c0,0-1-1.2,0-2.7l-0.3,0l2,0L76.7,92.9z M64.4,92.6c0-0.1-0.1-0.1-0.1-0.2
						c-0.1-0.1-0.1-0.2-0.2-0.4c-0.1-0.2-0.1-0.3-0.2-0.5c0-0.1,0-0.1,0-0.2c0,0,0-0.1,0-0.1c0-0.1,0-0.2,0-0.2c0-0.4,0-0.9,0.1-1.3
						c0.3-1.9,1.5-3.2,2.7-3c0.8,0.1,1.4,1,1.6,2.1c0,0.3,0,0.7-0.1,1c-0.3,2-1.6,3.5-2.9,3.3c0,0-0.1,0-0.1,0
						c-0.1,0-0.3-0.1-0.4-0.2C64.6,92.8,64.5,92.7,64.4,92.6z"/>
					<linearGradient id="SVGID_9_" gradientUnits="userSpaceOnUse" x1="46.3237" y1="11.2831" x2="88.9496" y2="11.2831">
						<stop  offset="0" style="stop-color:#D1DBDD"/>
						<stop  offset="1" style="stop-color:#EAEDF0"/>
					</linearGradient>
					<path fill="none" stroke="url(#SVGID_9_)" stroke-miterlimit="10" d="M87.7-1.6L77.6,14.2l-4.4,0.1L70.9,18l-1.1,0l-15,23.5
						l-0.2-1l-0.4,0.6L53.9,39l14.6-22.9l0-1.7l2.1-3.3l-1.5-2.9L67.4,11L66.3,11l-15,23.5l-0.2-1l-0.4,0.6L50.4,32L65,9.2l0-1.7
						L67,4.3l-1.5-3L63.8,4l-1.1,0l-15,23.5l-0.2-1l-0.4,0.6L46.8,25L61.4,2.1l0-1.7l2.1-3.2l-2-3.9l8.4-13.1c3,0.1,6.6,1.3,10,3.5
						C86.6-12,90.1-5.4,87.7-1.6z"/>
				</g>
			</g>
			<g clip-path="url(#SVGID_1_)">
				<g>
				</g>
				<g>
					<linearGradient id="SVGID_10_" gradientUnits="userSpaceOnUse" x1="62.479" y1="141.6634" x2="113.2871" y2="141.6634">
						<stop  offset="0" style="stop-color:#D1DBDD"/>
						<stop  offset="1" style="stop-color:#EAEDF0"/>
					</linearGradient>
					<path fill="none" stroke="url(#SVGID_10_)" stroke-miterlimit="10" d="M112.6,107l-11.1,16.5c5.2,5,0.7,10.5-2.1,12.8
						c-1.9,1.5-3.1,3-3.9,4.2c-0.8,1.2-1.7,2.9-2.4,5.2c-1.1,3.5-4.6,9.8-11.4,6.6l-16.9,25.1c-0.3,0.5-0.9,0.6-1.4,0.3
						c-0.3-0.2-0.4-0.5-0.4-0.8c0-0.2,0.1-0.4,0.2-0.6l16.9-25.2c-5-5-0.5-10.4,2.2-12.7c1.9-1.5,3.1-3,3.9-4.2
						c0.8-1.2,1.7-2.9,2.4-5.2c1.1-3.4,4.6-9.7,11.2-6.7l11.1-16.4c0.3-0.5,0.9-0.6,1.4-0.3c0.3,0.2,0.4,0.5,0.4,0.8
						C112.8,106.7,112.7,106.9,112.6,107z"/>
					<linearGradient id="SVGID_11_" gradientUnits="userSpaceOnUse" x1="110.4887" y1="156.0604" x2="153.1146" y2="156.0604">
						<stop  offset="0" style="stop-color:#D1DBDD"/>
						<stop  offset="1" style="stop-color:#EAEDF0"/>
					</linearGradient>
					<path fill="none" stroke="url(#SVGID_11_)" stroke-miterlimit="10" d="M151.8,143.2L141.8,159l-4.4,0.1l-2.3,3.7l-1.1,0
						l-15,23.5l-0.2-1l-0.4,0.6l-0.4-2.1l14.6-22.9l0-1.7l2.1-3.3l-1.5-2.9l-1.7,2.7l-1.1,0.1l-15,23.5l-0.2-1l-0.4,0.6l-0.4-2.1
						l14.6-22.9l0-1.7l2.1-3.2l-1.5-3l-1.7,2.7l-1.1,0l-15,23.5l-0.2-1l-0.4,0.6l-0.4-2.1l14.6-22.9l0-1.7l2.1-3.2l-2-3.9L134,125
						c3,0.1,6.6,1.3,10,3.5C150.8,132.8,154.3,139.4,151.8,143.2z"/>
				</g>
			</g>
		</g>
	</g>
</g>
<g>
	<g>
		<polygon fill="#91A3AD" points="17.9,72.6 15.2,73.3 -9.1,115 -9.3,109 13.7,69.3 14.1,64.3 22.8,49.3 25.8,59 		"/>
		<polygon fill="#91A3AD" points="26.9,88.4 24.1,89.1 0,130.7 -0.3,124.6 22.7,85 23.1,80.1 31.8,65.2 34.7,74.8 		"/>
		<polygon fill="#91A3AD" points="36.8,102 34.2,102.5 12.7,139.6 12.2,134 32.6,98.7 32.8,94.3 40.5,80.9 43.9,89.9 		"/>
		<polygon fill="#D6DDE1" points="16.4,72 13.7,72.7 -10.8,114.9 -11.1,108.8 12.2,68.7 12.6,63.7 21.5,48.5 24.4,58.3 		"/>
		<polygon fill="#D6DDE1" points="25.6,87.3 22.9,88 -0.8,128.9 -1.2,123 21.5,84 21.8,79.1 30.4,64.4 33.4,74 		"/>
		<polygon fill="#D6DDE1" points="35.4,101.3 32.8,101.8 11.3,138.9 10.7,133.3 31.2,98 31.4,93.5 39.1,80.1 42.5,89.2 		"/>
		<polygon fill="#91A3AD" points="48.9,113.7 46.5,113.9 29.2,143.7 28.2,138.9 44.6,110.5 44.4,106.7 50.6,96 54.6,104 		"/>
		<polygon fill="#D6DDE1" points="47.5,112.9 45.1,113.1 27.8,142.9 26.8,138.1 43.3,109.7 43,105.9 49.2,95.2 53.2,103.2 		"/>
	</g>
	<g>
		<polygon fill="#91A3AD" points="57.8,69.3 55.4,69.5 38.1,99.3 37.1,94.5 53.6,66.1 53.3,62.3 59.5,51.6 63.5,59.6 		"/>
		<polygon fill="#91A3AD" points="66.8,85.1 64.3,85.4 47,115.1 46,110.4 62.5,82 62.2,78.2 68.5,67.4 72.4,75.4 		"/>
		<polygon fill="#91A3AD" points="73.4,104.5 70.8,105.1 49,142.6 48.5,137 69.2,101.2 69.4,96.7 77.2,83.2 80.5,92.3 		"/>
		<polygon fill="#D6DDE1" points="56.5,68.5 54,68.7 36.7,98.5 35.7,93.7 52.2,65.3 51.9,61.5 58.2,50.8 62.1,58.8 		"/>
		<polygon fill="#D6DDE1" points="65.4,84.3 63,84.6 45.7,114.3 44.6,109.6 61.1,81.2 60.9,77.4 67.1,66.6 71,74.6 		"/>
		<polygon fill="#D6DDE1" points="72,103.7 69.4,104.3 47.6,141.8 47.1,136.2 67.8,100.4 68,95.9 75.8,82.4 79.2,91.5 		"/>
		<polygon fill="#91A3AD" points="85.6,116 83.2,116.2 65.9,146 64.9,141.2 81.4,112.8 81.1,109 87.3,98.2 91.3,106.2 		"/>
		<polygon fill="#D6DDE1" points="84.2,115.2 81.8,115.4 64.5,145.2 63.5,140.4 80,112 79.7,108.2 85.9,97.4 89.9,105.4 		"/>
	</g>
	<path fill="none" stroke="#170600" stroke-width="3" stroke-miterlimit="10" d="M7.7,61.9l34.9,60.5c0.3,0.6,1,0.9,1.6,0.9l46-1.5"
		/>
	
		<linearGradient id="SVGID_12_" gradientUnits="userSpaceOnUse" x1="-1038.33" y1="-1090.6477" x2="-973.9307" y2="-1090.6477" gradientTransform="matrix(0.8647 0.5023 -0.5023 0.8647 365.3 1511.0765)">
		<stop  offset="0" style="stop-color:#6B6B6B"/>
		<stop  offset="1" style="stop-color:#454545"/>
	</linearGradient>
	<path fill="url(#SVGID_12_)" d="M7.7,60.4L40.8,2.6c0.6-1,2-1,2.6,0l35.2,60.7c0.3,0.5,0.3,1,0,1.5l-33.1,57.8c-0.6,1-2,1-2.6,0
		L7.7,61.9C7.5,61.5,7.5,60.9,7.7,60.4z"/>
	
		<linearGradient id="SVGID_13_" gradientUnits="userSpaceOnUse" x1="-976.2676" y1="-1085.3632" x2="-934.7478" y2="-1085.3632" gradientTransform="matrix(0.8647 0.5023 -0.5023 0.8647 365.3 1511.0765)">
		<stop  offset="0" style="stop-color:#2C2C2C"/>
		<stop  offset="1" style="stop-color:#393939"/>
	</linearGradient>
	<path fill="url(#SVGID_13_)" d="M76.3,65.2l46.7-4.1c1.3,0,2.2,1.4,1.5,2.6L91.8,121c-0.3,0.5-0.9,0.9-1.5,0.9l-46.5,1.5L76.3,65.2
		z"/>
	
		<linearGradient id="SVGID_15_" gradientUnits="userSpaceOnUse" x1="-1038.4083" y1="-1135.1365" x2="-935.3145" y2="-1135.1365" gradientTransform="matrix(0.8647 0.5023 -0.5023 0.8647 365.3 1511.0765)">
		<stop  offset="0" style="stop-color:#A9A9A9"/>
		<stop  offset="1" style="stop-color:#7B7B7B"/>
	</linearGradient>
	<path fill="url(#SVGID_15_)" d="M42.6,1.4h42.8c0.7,0,1.4,0.4,1.8,1l37.1,59.2c0.9,1.4-0.1,3.2-1.8,3.3l-45.4,0.3
		c-0.8,0-1.5-0.4-1.9-1.1L40.8,4.6C40,3.2,41,1.4,42.6,1.4z"/>
</g>
</svg>
