<?xml version="1.0" encoding="utf-8"?>
<!-- Generator: Adobe Illustrator 17.1.0, SVG Export Plug-In . SVG Version: 6.00 Build 0)  -->
<!DOCTYPE svg PUBLIC "-//W3C//DTD SVG 1.1//EN" "http://www.w3.org/Graphics/SVG/1.1/DTD/svg11.dtd">
<svg version="1.1" id="Слой_1" xmlns="http://www.w3.org/2000/svg" xmlns:xlink="http://www.w3.org/1999/xlink" x="0px" y="0px"
	 width="128.8px" height="176.2px" viewBox="0 0 128.8 176.2" enable-background="new 0 0 128.8 176.2" xml:space="preserve">
<g opacity="0.18">
	<defs>
		<path id="SVGID_615_" opacity="0.18" d="M-1106.3,227.2c0,3.9-3.1,7-7,7h-449.7c-3.9,0-7-3.1-7-7v-554.1c0-3.9,3.1-7,7-7h449.7
			c3.9,0,7,3.1,7,7V227.2z"/>
	</defs>
	<clipPath id="SVGID_2_">
		<use xlink:href="#SVGID_615_"  overflow="visible"/>
	</clipPath>
	<g clip-path="url(#SVGID_2_)">
		<g>
			<linearGradient id="SVGID_4_" gradientUnits="userSpaceOnUse" x1="-8.6827" y1="-18.327" x2="56.1688" y2="-18.327">
				<stop  offset="0" style="stop-color:#D1DBDD"/>
				<stop  offset="1" style="stop-color:#EAEDF0"/>
			</linearGradient>
			<polygon fill="none" stroke="url(#SVGID_4_)" stroke-miterlimit="10" points="55.6,-29.1 54.7,-28 54.1,-28.1 51.2,-35.3 
				50.4,-35.5 49.4,-38 48,-36.2 49.2,-33.2 48.8,-31.8 51.8,-24.3 50.9,-23.2 50.3,-23.3 47.5,-30.5 46.6,-30.7 45.6,-33.2 
				44.1,-31.4 45.3,-28.3 45,-26.9 48,-19.4 47.1,-18.3 46.4,-18.4 43.6,-25.6 42.8,-25.8 41.7,-28.4 40.3,-26.6 41.5,-23.5 
				41.2,-22.2 44.2,-14.6 43.3,-13.6 42.7,-13.6 39.8,-20.8 39,-21 37.9,-23.6 36.5,-21.8 37.8,-18.7 37.5,-17.3 40.4,-9.8 
				39.5,-8.7 38.9,-8.8 36.1,-16 35.2,-16.2 34.1,-18.9 32.7,-17.1 34,-13.9 33.7,-12.5 36.6,-5 35.7,-3.9 35.1,-4 32.3,-11.2 
				31.4,-11.4 30.3,-14.1 28.9,-12.3 30.2,-9 29.9,-7.6 32.8,-0.1 31.9,1 31.3,0.9 28.5,-6.3 27.6,-6.5 26.5,-9.3 25.1,-7.5 
				26.4,-4.2 26.1,-2.9 29,4.7 28.2,5.7 27.5,5.7 24.7,-1.5 23.8,-1.7 22.7,-4.5 21.3,-2.8 22.6,0.6 22.3,2 25.3,9.5 24.4,10.6 
				23.7,10.5 20.9,3.3 20,3.1 18.9,0.2 17.5,2 18.8,5.4 18.5,6.8 21.5,14.3 20.6,15.4 19.9,15.3 17.1,8.1 16.3,7.9 15.1,5 11.3,9.7 
				-0.2,8 1.2,11.4 0.3,12.5 -0.3,12.4 -2.2,7.7 -5,7.3 -8.2,3.4 -8.2,-0.9 32.7,-52 49,-49.6 52.9,-45.2 52.2,-41.4 51.8,-40.9 
				52.9,-38 52.6,-36.6 			"/>
		</g>
		<g>
			<linearGradient id="SVGID_6_" gradientUnits="userSpaceOnUse" x1="54.0649" y1="129.8928" x2="118.9164" y2="129.8928">
				<stop  offset="0" style="stop-color:#D1DBDD"/>
				<stop  offset="1" style="stop-color:#EAEDF0"/>
			</linearGradient>
			<polygon fill="none" stroke="url(#SVGID_6_)" stroke-miterlimit="10" points="118.3,119.2 117.5,120.2 116.8,120.1 114,112.9 
				113.1,112.7 112.1,110.2 110.7,112 111.9,115 111.6,116.4 114.6,123.9 113.7,125 113,124.9 110.2,117.7 109.3,117.5 108.3,115 
				106.9,116.9 108.1,119.9 107.8,121.3 110.7,128.8 109.8,129.9 109.2,129.8 106.4,122.6 105.5,122.4 104.5,119.8 103.1,121.6 
				104.3,124.7 104,126.1 106.9,133.6 106.1,134.7 105.4,134.6 102.6,127.4 101.7,127.2 100.7,124.6 99.3,126.4 100.5,129.5 
				100.2,130.9 103.2,138.5 102.3,139.5 101.6,139.4 98.8,132.2 97.9,132 96.9,129.4 95.5,131.1 96.7,134.3 96.4,135.7 99.4,143.2 
				98.5,144.3 97.8,144.2 95,137 94.2,136.8 93.1,134.1 91.6,135.9 92.9,139.2 92.6,140.6 95.6,148.1 94.7,149.2 94,149.1 
				91.2,141.9 90.3,141.7 89.3,138.9 87.8,140.7 89.1,144 88.8,145.4 91.8,152.9 90.9,154 90.2,153.9 87.4,146.7 86.6,146.5 
				85.5,143.7 84,145.5 85.4,148.8 85.1,150.2 88,157.8 87.1,158.8 86.5,158.7 83.7,151.5 82.8,151.3 81.7,148.4 80.2,150.2 
				81.6,153.6 81.3,155 84.2,162.5 83.3,163.6 82.7,163.5 79.9,156.3 79,156.1 77.9,153.2 74.1,157.9 62.6,156.2 64,159.7 
				63.1,160.7 62.4,160.6 60.6,155.9 57.8,155.5 54.6,151.6 54.6,147.3 95.4,96.2 111.7,98.6 115.6,103 114.9,106.8 114.5,107.3 
				115.7,110.2 115.4,111.6 			"/>
			<linearGradient id="SVGID_8_" gradientUnits="userSpaceOnUse" x1="-32.8533" y1="98.6405" x2="17.9548" y2="98.6405">
				<stop  offset="0" style="stop-color:#D1DBDD"/>
				<stop  offset="1" style="stop-color:#EAEDF0"/>
			</linearGradient>
			<path fill="none" stroke="url(#SVGID_8_)" stroke-miterlimit="10" d="M17.3,64L6.2,80.5c5.2,5,0.7,10.5-2.1,12.8
				c-1.9,1.5-3.1,3-3.9,4.2c-0.8,1.2-1.7,2.9-2.4,5.2c-1.1,3.5-4.6,9.8-11.4,6.6l-16.9,25.1c-0.3,0.5-0.9,0.6-1.4,0.3
				c-0.3-0.2-0.4-0.5-0.4-0.8c0-0.2,0.1-0.4,0.2-0.6l16.9-25.2c-5-5-0.5-10.4,2.2-12.7c1.9-1.5,3.1-3,3.9-4.2
				c0.8-1.2,1.7-2.9,2.4-5.2c1.1-3.4,4.6-9.7,11.2-6.7l11.1-16.4c0.3-0.5,0.9-0.6,1.4-0.3c0.3,0.2,0.4,0.5,0.4,0.8
				C17.5,63.6,17.4,63.8,17.3,64z"/>
			<linearGradient id="SVGID_10_" gradientUnits="userSpaceOnUse" x1="0.7784" y1="207.7975" x2="46.1059" y2="207.7975">
				<stop  offset="0" style="stop-color:#D1DBDD"/>
				<stop  offset="1" style="stop-color:#EAEDF0"/>
			</linearGradient>
			<path fill="none" stroke="url(#SVGID_10_)" stroke-miterlimit="10" d="M45.5,194.7l-9.9-19.5l-1.8-0.2l-3,4.6c0,0,1.1,3-2.1,3.1
				l-3.1,4.8l-5.6-0.3l-8,12.2l1.7,3.3l-1.9,3l0,1.6L1.3,223.9l0.3,2l0.4-0.6l0.2,1l10.9-17.1l1,0l1.6-2.5l1.5,2.8l-2,3.1l0,1.6
				L4.7,230.6l0.3,2l0.4-0.6l0.2,1l10.9-17.1l1,0l1.7-2.6l1.4,2.8l-2.1,3.2l0,1.6L8,237.4l0.3,2l0.4-0.6l0.2,1l10.9-17.1l1,0
				l2.4-3.7l6.4,0.2l8-12.3l3-4.7c0,0-1-1.2,0-2.7l-0.3,0l2,0L45.5,194.7z M33.3,194.4c0-0.1-0.1-0.1-0.1-0.2
				c-0.1-0.1-0.1-0.2-0.2-0.4c-0.1-0.2-0.1-0.3-0.2-0.5c0-0.1,0-0.1,0-0.2c0,0,0-0.1,0-0.1c0-0.1,0-0.2,0-0.2c0-0.4,0-0.9,0.1-1.3
				c0.3-1.9,1.5-3.2,2.7-3c0.8,0.1,1.4,1,1.6,2.1c0,0.3,0,0.7-0.1,1c-0.3,2-1.6,3.5-2.9,3.3c0,0-0.1,0-0.1,0c-0.1,0-0.3-0.1-0.4-0.2
				C33.5,194.5,33.4,194.5,33.3,194.4z"/>
			<linearGradient id="SVGID_11_" gradientUnits="userSpaceOnUse" x1="15.1564" y1="113.0375" x2="57.7823" y2="113.0375">
				<stop  offset="0" style="stop-color:#D1DBDD"/>
				<stop  offset="1" style="stop-color:#EAEDF0"/>
			</linearGradient>
			<path fill="none" stroke="url(#SVGID_11_)" stroke-miterlimit="10" d="M56.5,100.2L46.4,116l-4.4,0.1l-2.3,3.7l-1.1,0l-15,23.5
				l-0.2-1l-0.4,0.6l-0.4-2.1l14.6-22.9l0-1.7l2.1-3.3l-1.5-2.9l-1.7,2.7l-1.1,0.1l-15,23.5l-0.2-1l-0.4,0.6l-0.4-2.1l14.6-22.9
				l0-1.7l2.1-3.2l-1.5-3l-1.7,2.7l-1.1,0l-15,23.5l-0.2-1l-0.4,0.6l-0.4-2.1l14.6-22.9l0-1.7l2.1-3.2l-2-3.9L38.7,82
				c3,0.1,6.6,1.3,10,3.5C55.5,89.8,58.9,96.3,56.5,100.2z"/>
		</g>
	</g>
</g>
<g opacity="0.18">
	<defs>
		<path id="SVGID_944_" opacity="0.18" d="M-540.3,227.2c0,3.9-3.1,7-7,7h-449.7c-3.9,0-7-3.1-7-7v-554.1c0-3.9,3.1-7,7-7h449.7
			c3.9,0,7,3.1,7,7V227.2z"/>
	</defs>
	<clipPath id="SVGID_12_">
		<use xlink:href="#SVGID_944_"  overflow="visible"/>
	</clipPath>
	<g clip-path="url(#SVGID_12_)">
		<g>
			<linearGradient id="SVGID_13_" gradientUnits="userSpaceOnUse" x1="-52.4575" y1="129.8928" x2="12.3941" y2="129.8928">
				<stop  offset="0" style="stop-color:#D1DBDD"/>
				<stop  offset="1" style="stop-color:#EAEDF0"/>
			</linearGradient>
			<polygon fill="none" stroke="url(#SVGID_13_)" stroke-miterlimit="10" points="11.8,119.2 10.9,120.2 10.3,120.1 7.5,112.9 
				6.6,112.7 5.6,110.2 4.2,112 5.4,115 5.1,116.4 8,123.9 7.2,125 6.5,124.9 3.7,117.7 2.8,117.5 1.8,115 0.3,116.9 1.6,119.9 
				1.2,121.3 4.2,128.8 3.3,129.9 2.7,129.8 -0.1,122.6 -1,122.4 -2,119.8 -3.5,121.6 -2.2,124.7 -2.5,126.1 0.4,133.6 -0.5,134.7 
				-1.1,134.6 -3.9,127.4 -4.8,127.2 -5.8,124.6 -7.3,126.4 -6,129.5 -6.3,130.9 -3.4,138.5 -4.2,139.5 -4.9,139.4 -7.7,132.2 
				-8.6,132 -9.6,129.4 -11.1,131.1 -9.8,134.3 -10.1,135.7 -7.1,143.2 -8,144.3 -8.7,144.2 -11.5,137 -12.4,136.8 -13.4,134.1 
				-14.9,135.9 -13.6,139.2 -13.9,140.6 -10.9,148.1 -11.8,149.2 -12.5,149.1 -15.3,141.9 -16.2,141.7 -17.3,138.9 -18.7,140.7 
				-17.4,144 -17.7,145.4 -14.7,152.9 -15.6,154 -16.3,153.9 -19.1,146.7 -20,146.5 -21.1,143.7 -22.5,145.5 -21.2,148.8 
				-21.5,150.2 -18.5,157.8 -19.4,158.8 -20,158.7 -22.9,151.5 -23.7,151.3 -24.9,148.4 -26.3,150.2 -25,153.6 -25.3,155 
				-22.3,162.5 -23.2,163.6 -23.8,163.5 -26.7,156.3 -27.5,156.1 -28.7,153.2 -32.4,157.9 -43.9,156.2 -42.6,159.7 -43.4,160.7 
				-44.1,160.6 -46,155.9 -48.7,155.5 -52,151.6 -51.9,147.3 -11.1,96.2 5.2,98.6 9.1,103 8.4,106.8 8,107.3 9.2,110.2 8.9,111.6 
							"/>
		</g>
		<g>
			<linearGradient id="SVGID_15_" gradientUnits="userSpaceOnUse" x1="49.8593" y1="-18.327" x2="114.7109" y2="-18.327">
				<stop  offset="0" style="stop-color:#D1DBDD"/>
				<stop  offset="1" style="stop-color:#EAEDF0"/>
			</linearGradient>
			<polygon fill="none" stroke="url(#SVGID_15_)" stroke-miterlimit="10" points="114.1,-29.1 113.3,-28 112.6,-28.1 109.8,-35.3 
				108.9,-35.5 107.9,-38 106.5,-36.2 107.7,-33.2 107.4,-31.8 110.3,-24.3 109.5,-23.2 108.8,-23.3 106,-30.5 105.1,-30.7 
				104.1,-33.2 102.7,-31.4 103.9,-28.3 103.6,-26.9 106.5,-19.4 105.6,-18.3 105,-18.4 102.2,-25.6 101.3,-25.8 100.3,-28.4 
				98.9,-26.6 100.1,-23.5 99.8,-22.2 102.7,-14.6 101.8,-13.6 101.2,-13.6 98.4,-20.8 97.5,-21 96.5,-23.6 95.1,-21.8 96.3,-18.7 
				96,-17.3 99,-9.8 98.1,-8.7 97.4,-8.8 94.6,-16 93.7,-16.2 92.7,-18.9 91.3,-17.1 92.5,-13.9 92.2,-12.5 95.2,-5 94.3,-3.9 
				93.6,-4 90.8,-11.2 89.9,-11.4 88.9,-14.1 87.4,-12.3 88.7,-9 88.4,-7.6 91.4,-0.1 90.5,1 89.8,0.9 87,-6.3 86.1,-6.5 85.1,-9.3 
				83.6,-7.5 84.9,-4.2 84.6,-2.9 87.6,4.7 86.7,5.7 86,5.7 83.2,-1.5 82.4,-1.7 81.3,-4.5 79.8,-2.8 81.2,0.6 80.8,2 83.8,9.5 
				82.9,10.6 82.3,10.5 79.5,3.3 78.6,3.1 77.4,0.2 76,2 77.4,5.4 77.1,6.8 80,14.3 79.1,15.4 78.5,15.3 75.7,8.1 74.8,7.9 73.6,5 
				69.9,9.7 58.4,8 59.7,11.4 58.9,12.5 58.2,12.4 56.4,7.7 53.6,7.3 50.4,3.4 50.4,-0.9 91.2,-52 107.5,-49.6 111.4,-45.2 
				110.7,-41.4 110.3,-40.9 111.5,-38 111.2,-36.6 			"/>
			<linearGradient id="SVGID_16_" gradientUnits="userSpaceOnUse" x1="-3.4272" y1="59.5778" x2="41.9003" y2="59.5778">
				<stop  offset="0" style="stop-color:#D1DBDD"/>
				<stop  offset="1" style="stop-color:#EAEDF0"/>
			</linearGradient>
			<path fill="none" stroke="url(#SVGID_16_)" stroke-miterlimit="10" d="M41.3,46.5l-9.9-19.5l-1.8-0.2l-3,4.6c0,0,1.1,3-2.1,3.1
				l-3.1,4.8L15.8,39l-8,12.2l1.7,3.3l-1.9,3l0,1.6L-2.9,75.7l0.3,2l0.4-0.6l0.2,1L8.9,60.9l1,0l1.6-2.5l1.5,2.8l-2,3.1l0,1.6
				L0.5,82.4l0.3,2l0.4-0.6l0.2,1l10.9-17.1l1,0l1.7-2.6l1.4,2.8L14.3,71l0,1.6L3.8,89.2l0.3,2l0.4-0.6l0.2,1l10.9-17.1l1,0l2.4-3.7
				l6.4,0.2l8-12.3l3-4.7c0,0-1-1.2,0-2.7l-0.3,0l2,0L41.3,46.5z M29.1,46.2c0-0.1-0.1-0.1-0.1-0.2c-0.1-0.1-0.1-0.2-0.2-0.4
				c-0.1-0.2-0.1-0.3-0.2-0.5c0-0.1,0-0.1,0-0.2c0,0,0-0.1,0-0.1c0-0.1,0-0.2,0-0.2c0-0.4,0-0.9,0.1-1.3c0.3-1.9,1.5-3.2,2.7-3
				c0.8,0.1,1.4,1,1.6,2.1c0,0.3,0,0.7-0.1,1c-0.3,2-1.6,3.5-2.9,3.3c0,0-0.1,0-0.1,0c-0.1,0-0.3-0.1-0.4-0.2
				C29.2,46.3,29.2,46.2,29.1,46.2z"/>
		</g>
		<g>
			<linearGradient id="SVGID_18_" gradientUnits="userSpaceOnUse" x1="113.0328" y1="35.7777" x2="161.2261" y2="35.7777">
				<stop  offset="0" style="stop-color:#D1DBDD"/>
				<stop  offset="1" style="stop-color:#EAEDF0"/>
			</linearGradient>
			<path fill="none" stroke="url(#SVGID_18_)" stroke-miterlimit="10" d="M160.1,20.4l-10.6,15v0l0,0c0,0-0.1,0.1-0.4,0.2
				c0,0,0,0,0,0c-1.7,0.9-1.8,2.5-1.8,2.8l0,0l0,0c0,0,0,0,0,0s0,0,0,0l-3,4.3c0,0-2.1,1.1-5.6,0.3L122.4,66l-1.2-0.9l15.9-22.4
				c-1.5-0.5-3.2-1.3-5.1-2.6c-1.4-1-2.4-1.9-3.3-2.9c-0.3-0.3-0.5-0.6-0.7-0.9l-13,18.1l-1.2-0.9L127,35c-2.1-3.2-1.9-5.8-1.9-5.8
				l3-4c0-0.2,0-0.3,0-0.3s2-0.6,2.2-2.3c0-0.5,0-0.8,0-0.8L141.1,7l0,0c2-2.8,7.8-2,13,1.7c1.2,0.8,2.2,1.7,3.1,2.7
				C160.4,14.6,161.6,18.3,160.1,20.4z"/>
		</g>
		<g>
			<linearGradient id="SVGID_19_" gradientUnits="userSpaceOnUse" x1="112.607" y1="129.8928" x2="177.4585" y2="129.8928">
				<stop  offset="0" style="stop-color:#D1DBDD"/>
				<stop  offset="1" style="stop-color:#EAEDF0"/>
			</linearGradient>
			<polygon fill="none" stroke="url(#SVGID_19_)" stroke-miterlimit="10" points="176.9,119.2 176,120.2 175.4,120.1 172.5,112.9 
				171.7,112.7 170.7,110.2 169.3,112 170.4,115 170.1,116.4 173.1,123.9 172.2,125 171.6,124.9 168.7,117.7 167.9,117.5 166.9,115 
				165.4,116.9 166.6,119.9 166.3,121.3 169.3,128.8 168.4,129.9 167.7,129.8 164.9,122.6 164,122.4 163,119.8 161.6,121.6 
				162.8,124.7 162.5,126.1 165.5,133.6 164.6,134.7 163.9,134.6 161.1,127.4 160.3,127.2 159.2,124.6 157.8,126.4 159.1,129.5 
				158.7,130.9 161.7,138.5 160.8,139.5 160.2,139.4 157.4,132.2 156.5,132 155.4,129.4 154,131.1 155.3,134.3 155,135.7 
				157.9,143.2 157,144.3 156.4,144.2 153.6,137 152.7,136.8 151.6,134.1 150.2,135.9 151.5,139.2 151.2,140.6 154.1,148.1 
				153.2,149.2 152.6,149.1 149.8,141.9 148.9,141.7 147.8,138.9 146.4,140.7 147.7,144 147.4,145.4 150.3,152.9 149.4,154 
				148.8,153.9 146,146.7 145.1,146.5 144,143.7 142.6,145.5 143.9,148.8 143.6,150.2 146.6,157.8 145.7,158.8 145,158.7 
				142.2,151.5 141.3,151.3 140.2,148.4 138.8,150.2 140.1,153.6 139.8,155 142.8,162.5 141.9,163.6 141.2,163.5 138.4,156.3 
				137.5,156.1 136.4,153.2 132.6,157.9 121.1,156.2 122.5,159.7 121.6,160.7 121,160.6 119.1,155.9 116.3,155.5 113.1,151.6 
				113.1,147.3 154,96.2 170.2,98.6 174.2,103 173.4,106.8 173.1,107.3 174.2,110.2 173.9,111.6 			"/>
			<linearGradient id="SVGID_20_" gradientUnits="userSpaceOnUse" x1="25.6888" y1="98.6405" x2="76.4969" y2="98.6405">
				<stop  offset="0" style="stop-color:#D1DBDD"/>
				<stop  offset="1" style="stop-color:#EAEDF0"/>
			</linearGradient>
			<path fill="none" stroke="url(#SVGID_20_)" stroke-miterlimit="10" d="M75.8,64L64.7,80.5c5.2,5,0.7,10.5-2.1,12.8
				c-1.9,1.5-3.1,3-3.9,4.2c-0.8,1.2-1.7,2.9-2.4,5.2c-1.1,3.5-4.6,9.8-11.4,6.6l-16.9,25.1c-0.3,0.5-0.9,0.6-1.4,0.3
				c-0.3-0.2-0.4-0.5-0.4-0.8c0-0.2,0.1-0.4,0.2-0.6l16.9-25.2c-5-5-0.5-10.4,2.2-12.7c1.9-1.5,3.1-3,3.9-4.2
				c0.8-1.2,1.7-2.9,2.4-5.2c1.1-3.4,4.6-9.7,11.2-6.7l11.1-16.4c0.3-0.5,0.9-0.6,1.4-0.3c0.3,0.2,0.4,0.5,0.4,0.8
				C76,63.6,75.9,63.8,75.8,64z"/>
			<linearGradient id="SVGID_21_" gradientUnits="userSpaceOnUse" x1="5.3225" y1="183.9974" x2="53.5158" y2="183.9974">
				<stop  offset="0" style="stop-color:#D1DBDD"/>
				<stop  offset="1" style="stop-color:#EAEDF0"/>
			</linearGradient>
			<path fill="none" stroke="url(#SVGID_21_)" stroke-miterlimit="10" d="M52.4,168.6l-10.6,15v0l0,0c0,0-0.1,0.1-0.4,0.2
				c0,0,0,0,0,0c-1.7,0.9-1.8,2.5-1.8,2.8l0,0l0,0c0,0,0,0,0,0s0,0,0,0l-3,4.3c0,0-2.1,1.1-5.6,0.3l-16.2,22.9l-1.2-0.9l15.9-22.4
				c-1.5-0.5-3.2-1.3-5.1-2.6c-1.4-1-2.4-1.9-3.3-2.9c-0.3-0.3-0.5-0.6-0.7-0.9l-13,18.1L6,201.8l13.3-18.5
				c-2.1-3.2-1.9-5.8-1.9-5.8l3-4c0-0.2,0-0.3,0-0.3s2-0.6,2.2-2.3c0-0.5,0-0.8,0-0.8l10.8-14.9l0,0c2-2.8,7.8-2,13,1.7
				c1.2,0.8,2.2,1.7,3.1,2.7C52.6,162.8,53.9,166.5,52.4,168.6z"/>
			<linearGradient id="SVGID_22_" gradientUnits="userSpaceOnUse" x1="59.3205" y1="207.7975" x2="104.6479" y2="207.7975">
				<stop  offset="0" style="stop-color:#D1DBDD"/>
				<stop  offset="1" style="stop-color:#EAEDF0"/>
			</linearGradient>
			<path fill="none" stroke="url(#SVGID_22_)" stroke-miterlimit="10" d="M104.1,194.7l-9.9-19.5l-1.8-0.2l-3,4.6c0,0,1.1,3-2.1,3.1
				l-3.1,4.8l-5.6-0.3l-8,12.2l1.7,3.3l-1.9,3l0,1.6l-10.6,16.5l0.3,2l0.4-0.6l0.2,1l10.9-17.1l1,0l1.6-2.5l1.5,2.8l-2,3.1l0,1.6
				l-10.6,16.5l0.3,2l0.4-0.6l0.2,1L75,215.9l1,0l1.7-2.6l1.4,2.8l-2.1,3.2l0,1.6l-10.6,16.5l0.3,2l0.4-0.6l0.2,1l10.9-17.1l1,0
				l2.4-3.7l6.4,0.2l8-12.3l3-4.7c0,0-1-1.2,0-2.7l-0.3,0l2,0L104.1,194.7z M91.8,194.4c0-0.1-0.1-0.1-0.1-0.2
				c-0.1-0.1-0.1-0.2-0.2-0.4c-0.1-0.2-0.1-0.3-0.2-0.5c0-0.1,0-0.1,0-0.2c0,0,0-0.1,0-0.1c0-0.1,0-0.2,0-0.2c0-0.4,0-0.9,0.1-1.3
				c0.3-1.9,1.5-3.2,2.7-3c0.8,0.1,1.4,1,1.6,2.1c0,0.3,0,0.7-0.1,1c-0.3,2-1.6,3.5-2.9,3.3c0,0-0.1,0-0.1,0c-0.1,0-0.3-0.1-0.4-0.2
				C92,194.5,91.9,194.5,91.8,194.4z"/>
			<linearGradient id="SVGID_23_" gradientUnits="userSpaceOnUse" x1="73.6985" y1="113.0375" x2="116.3244" y2="113.0375">
				<stop  offset="0" style="stop-color:#D1DBDD"/>
				<stop  offset="1" style="stop-color:#EAEDF0"/>
			</linearGradient>
			<path fill="none" stroke="url(#SVGID_23_)" stroke-miterlimit="10" d="M115,100.2L105,116l-4.4,0.1l-2.3,3.7l-1.1,0l-15,23.5
				l-0.2-1l-0.4,0.6l-0.4-2.1l14.6-22.9l0-1.7L98,113l-1.5-2.9l-1.7,2.7l-1.1,0.1l-15,23.5l-0.2-1l-0.4,0.6l-0.4-2.1l14.6-22.9
				l0-1.7l2.1-3.2l-1.5-3l-1.7,2.7l-1.1,0l-15,23.5l-0.2-1l-0.4,0.6l-0.4-2.1l14.6-22.9l0-1.7l2.1-3.2l-2-3.9L97.2,82
				c3,0.1,6.6,1.3,10,3.5C114,89.8,117.5,96.3,115,100.2z"/>
		</g>
	</g>
</g>
<g>
	<g>
		<path fill="#FFFFFF" d="M46,176.2h-2.5l-9.6-20.2h3.8l7.1,15.2l6.6-15.2h3.7L46,176.2z"/>
		<path fill="#FFFFFF" d="M58.5,155.1c1.1,0,1.9,0.8,1.9,1.7c0,1-0.8,1.8-1.9,1.8c-1.2,0-1.9-0.8-1.9-1.8
			C56.5,155.9,57.4,155.1,58.5,155.1z M56.8,161.1h3.3v15h-3.3V161.1z"/>
		<path fill="#FFFFFF" d="M63.4,155.1h3.3v7.4c1.1-1.1,2.6-1.7,4.4-1.7c4.5,0,7,3.2,7,7.6c0,5-3.2,8-7.8,8c-2.6,0-5.2-0.9-6.8-2.6
			V155.1z M66.7,166.2v5.8c0.9,1,2.3,1.4,3.6,1.4c2.5,0,4.3-1.7,4.3-4.8c0-3-1.7-4.7-4.2-4.7C68.8,163.9,67.4,164.9,66.7,166.2z"/>
		<path fill="#FFFFFF" d="M94,173.4c-1.5,2.1-3.6,3.1-6.1,3.1c-4.8,0-8.1-3.1-8.1-7.8c0-4.4,2.7-7.8,7.7-7.8c4,0,7.1,2.7,7.1,6.9
			c0,0.5-0.1,1.2-0.2,2.1H83.2c0.3,2.4,2.2,3.6,4.7,3.6c1.6,0,3.1-0.8,4-2L94,173.4z M83.3,166.9h7.9c-0.3-2.1-1.7-3.1-3.8-3.1
			C85.1,163.8,83.7,165,83.3,166.9z"/>
		<path fill="#FFFFFF" d="M96.9,161.1h3.3v1c0.4-0.8,1.6-1.3,2.7-1.3c1.5,0,2.3,0.5,3,1.3l-1.9,2.4c-0.3-0.4-0.8-0.7-1.5-0.7
			c-1,0-2,0.7-2.3,2.1v10.2h-3.3V161.1z"/>
	</g>
</g>
<path fill="#FFFFFF" d="M121.3,35.2c0,33.1,1.7,80.4-31.4,80.4c-10.7,0-22.7-2.4-34.9,4.5c-7.3,4.1-13.4,15.6-20.8,18.2
	c-2.2-6.2,0.1-19-3.7-24.7c-7.2-10.9-20.1-12-20.1-22.5c0-33.1-8.8-75.3,23.7-81.4C64.4,4.1,121.3,2.1,121.3,35.2z"/>
<g>
	<path fill="#662D83" d="M127.5,81.4c4.2-35.3-2-57.6-13.2-67.6l0,0C96.2-3.4,35.2-6,13.6,14.5c-9.7,10-13.1,24.8-13.5,43
		c-0.4,18.2-0.8,52.4,31,61.7h0l0,14.2c0,0-0.2,5.7,3.4,6.9c4.2,1.4,6.1-1.3,19.1-16.9c21.8,1.9,38.5-2.4,40.4-3.1
		C98.5,118.9,123.5,115.6,127.5,81.4L127.5,81.4z M55.8,113.5c0,0-13.8,17.2-18.1,21.7c-1.4,1.5-2.9,1.3-2.9-1.6
		c0-1.9,0.1-23.5,0.1-23.5C7.9,102.3,9.5,73.2,9.8,58c0.3-15.2,3.1-27.7,11.3-36.1c19-17.8,72.5-13.8,86.1-1
		c16.7,14.8,10.7,56.5,10.8,57.9c-3.4,28.5-23.6,30.3-27.3,31.6C89.1,110.9,74.3,114.7,55.8,113.5L55.8,113.5z"/>
	<path fill="#662D83" d="M63.5,25.2c-2.3,0-2.3,3.5,0,3.5c17.5,0.1,31.9,12.3,32,34.7c0,2.4,3.5,2.3,3.4,0h0
		C98.8,39.3,83,25.4,63.5,25.2L63.5,25.2z"/>
	<path fill="#662D83" d="M86.5,59.8c-0.1,2.3,3.4,2.4,3.4,0.1c0.3-13.3-7.9-24.2-23.3-25.4c-2.3-0.2-2.5,3.4-0.2,3.5
		C79.7,39,86.7,48.1,86.5,59.8L86.5,59.8z"/>
	<path fill="#662D83" d="M82.8,74.9c-2.9-1.7-5.8-0.6-7.1,1l-2.5,3.3c-1.3,1.7-3.7,1.5-3.7,1.5C51.8,76,47.1,57.5,47.1,57.5
		s-0.2-2.5,1.4-3.8l3.2-2.6c1.6-1.3,2.6-4.3,1-7.3c-4.3-7.8-7.2-10.5-8.7-12.6c-1.6-1.9-3.9-2.4-6.3-1.1h-0.1
		c-5.1,3-10.6,8.5-8.8,14.2c3,6,8.6,25.2,26.3,39.7c8.3,6.9,21.5,13.9,27.1,15.5l0.1,0.1c5.5,1.8,10.9-3.9,13.7-9.1v0
		c1.3-2.5,0.8-4.9-1-6.5C91.7,80.7,86.7,77.1,82.8,74.9L82.8,74.9z"/>
	<path fill="#662D83" d="M69,47.5c5.6,0.3,8.4,3.3,8.6,9.3c0.1,2.4,3.5,2.2,3.4-0.2c-0.4-7.9-4.5-12.3-11.9-12.7
		C67,43.8,66.7,47.4,69,47.5L69,47.5z"/>
</g>
</svg>
