<?xml version="1.0" encoding="utf-8"?>
<!-- Generator: Adobe Illustrator 17.1.0, SVG Export Plug-In . SVG Version: 6.00 Build 0)  -->
<!DOCTYPE svg PUBLIC "-//W3C//DTD SVG 1.1//EN" "http://www.w3.org/Graphics/SVG/1.1/DTD/svg11.dtd">
<svg version="1.1" id="Слой_1" xmlns="http://www.w3.org/2000/svg" xmlns:xlink="http://www.w3.org/1999/xlink" x="0px" y="0px"
	 width="147.1px" height="184.8px" viewBox="0 0 147.1 184.8" enable-background="new 0 0 147.1 184.8" xml:space="preserve">
<g opacity="0.18">
	<defs>
		<path id="SVGID_615_" opacity="0.18" d="M-902.9,230.4c0,3.9-3.1,7-7,7h-449.7c-3.9,0-7-3.1-7-7v-554.1c0-3.9,3.1-7,7-7h449.7
			c3.9,0,7,3.1,7,7V230.4z"/>
	</defs>
	<clipPath id="SVGID_2_">
		<use xlink:href="#SVGID_615_"  overflow="visible"/>
	</clipPath>
	<g clip-path="url(#SVGID_2_)">
		<g>
			<linearGradient id="SVGID_4_" gradientUnits="userSpaceOnUse" x1="24.2341" y1="-15.121" x2="89.0856" y2="-15.121">
				<stop  offset="0" style="stop-color:#D1DBDD"/>
				<stop  offset="1" style="stop-color:#EAEDF0"/>
			</linearGradient>
			<polygon fill="none" stroke="url(#SVGID_4_)" stroke-miterlimit="10" points="88.5,-25.9 87.6,-24.8 87,-24.9 84.2,-32.1 
				83.3,-32.3 82.3,-34.8 80.9,-33 82.1,-30 81.8,-28.6 84.7,-21.1 83.8,-20 83.2,-20.1 80.4,-27.3 79.5,-27.5 78.5,-30 77,-28.2 
				78.2,-25.1 77.9,-23.7 80.9,-16.2 80,-15.1 79.4,-15.2 76.5,-22.4 75.7,-22.6 74.7,-25.2 73.2,-23.4 74.5,-20.3 74.1,-18.9 
				77.1,-11.4 76.2,-10.4 75.6,-10.4 72.8,-17.6 71.9,-17.8 70.9,-20.4 69.4,-18.6 70.7,-15.5 70.4,-14.1 73.3,-6.6 72.5,-5.5 
				71.8,-5.6 69,-12.8 68.1,-13 67.1,-15.7 65.6,-13.9 66.9,-10.7 66.6,-9.3 69.5,-1.8 68.7,-0.7 68,-0.8 65.2,-8 64.3,-8.2 
				63.3,-10.9 61.8,-9.1 63.1,-5.8 62.8,-4.4 65.7,3.1 64.9,4.2 64.2,4.1 61.4,-3.1 60.5,-3.3 59.4,-6.1 58,-4.3 59.3,-1 59,0.4 
				61.9,7.9 61.1,8.9 60.4,8.9 57.6,1.7 56.7,1.5 55.6,-1.3 54.2,0.4 55.5,3.8 55.2,5.2 58.2,12.7 57.3,13.8 56.7,13.7 53.8,6.5 
				53,6.3 51.8,3.4 50.4,5.2 51.7,8.6 51.4,10 54.4,17.5 53.5,18.6 52.9,18.5 50,11.3 49.2,11.1 48,8.2 44.2,12.9 32.8,11.2 
				34.1,14.7 33.2,15.7 32.6,15.6 30.7,10.9 28,10.5 24.7,6.6 24.8,2.3 65.6,-48.8 81.9,-46.4 85.8,-42 85.1,-38.2 84.7,-37.7 
				85.9,-34.8 85.6,-33.4 			"/>
			<linearGradient id="SVGID_6_" gradientUnits="userSpaceOnUse" x1="-29.0525" y1="62.7838" x2="16.275" y2="62.7838">
				<stop  offset="0" style="stop-color:#D1DBDD"/>
				<stop  offset="1" style="stop-color:#EAEDF0"/>
			</linearGradient>
			<path fill="none" stroke="url(#SVGID_6_)" stroke-miterlimit="10" d="M15.7,49.7L5.8,30.1L4,30l-3,4.6c0,0,1.1,3-2.1,3.1
				l-3.1,4.8l-5.6-0.3l-8,12.2l1.7,3.3l-1.9,3l0,1.6l-10.6,16.5l0.3,2l0.4-0.6l0.2,1l10.9-17.1l1,0l1.6-2.5l1.5,2.8l-2,3.1l0,1.6
				l-10.6,16.5l0.3,2l0.4-0.6l0.2,1l10.9-17.1l1,0l1.7-2.6l1.4,2.8l-2.1,3.2l0,1.6l-10.6,16.5l0.3,2l0.4-0.6l0.2,1L-10,77.7l1,0
				l2.4-3.7l6.4,0.2l8-12.3l3-4.7c0,0-1-1.2,0-2.7l-0.3,0l2,0L15.7,49.7z M3.4,49.4c0-0.1-0.1-0.1-0.1-0.2c-0.1-0.1-0.1-0.2-0.2-0.4
				C3.1,48.6,3,48.4,3,48.2c0-0.1,0-0.1,0-0.2c0,0,0-0.1,0-0.1c0-0.1,0-0.2,0-0.2c0-0.4,0-0.9,0.1-1.3c0.3-1.9,1.5-3.2,2.7-3
				c0.8,0.1,1.4,1,1.6,2.1c0,0.3,0,0.7-0.1,1c-0.3,2-1.6,3.5-2.9,3.3c0,0-0.1,0-0.1,0c-0.1,0-0.3-0.1-0.4-0.2
				C3.6,49.5,3.5,49.4,3.4,49.4z"/>
		</g>
		<g>
			<linearGradient id="SVGID_8_" gradientUnits="userSpaceOnUse" x1="87.4075" y1="38.9837" x2="135.6008" y2="38.9837">
				<stop  offset="0" style="stop-color:#D1DBDD"/>
				<stop  offset="1" style="stop-color:#EAEDF0"/>
			</linearGradient>
			<path fill="none" stroke="url(#SVGID_8_)" stroke-miterlimit="10" d="M134.4,23.6l-10.6,15v0l0,0c0,0-0.1,0.1-0.4,0.2
				c0,0,0,0,0,0c-1.7,0.9-1.8,2.5-1.8,2.8l0,0l0,0c0,0,0,0,0,0s0,0,0,0l-3,4.3c0,0-2.1,1.1-5.6,0.3L96.8,69.2l-1.2-0.9l15.9-22.4
				c-1.5-0.5-3.2-1.3-5.1-2.6c-1.4-1-2.4-1.9-3.3-2.9c-0.3-0.3-0.5-0.6-0.7-0.9l-13,18.1l-1.2-0.9l13.3-18.5
				c-2.1-3.2-1.9-5.8-1.9-5.8l3-4c0-0.2,0-0.3,0-0.3s2-0.6,2.2-2.3c0-0.5,0-0.8,0-0.8l10.8-14.9l0,0c2-2.8,7.8-2,13,1.7
				c1.2,0.8,2.2,1.7,3.1,2.7C134.7,17.8,136,21.5,134.4,23.6z"/>
			<linearGradient id="SVGID_10_" gradientUnits="userSpaceOnUse" x1="141.4055" y1="62.7838" x2="186.7329" y2="62.7838">
				<stop  offset="0" style="stop-color:#D1DBDD"/>
				<stop  offset="1" style="stop-color:#EAEDF0"/>
			</linearGradient>
			<path fill="none" stroke="url(#SVGID_10_)" stroke-miterlimit="10" d="M186.2,49.7l-9.9-19.5l-1.8-0.2l-3,4.6c0,0,1.1,3-2.1,3.1
				l-3.1,4.8l-5.6-0.3l-8,12.2l1.7,3.3l-1.9,3l0,1.6l-10.6,16.5l0.3,2l0.4-0.6l0.2,1l10.9-17.1l1,0l1.6-2.5l1.5,2.8l-2,3.1l0,1.6
				l-10.6,16.5l0.3,2L146,87l0.2,1l10.9-17.1l1,0l1.7-2.6l1.4,2.8l-2.1,3.2l0,1.6l-10.6,16.5l0.3,2l0.4-0.6l0.2,1l10.9-17.1l1,0
				l2.4-3.7l6.4,0.2l8-12.3l3-4.7c0,0-1-1.2,0-2.7l-0.3,0l2,0L186.2,49.7z M173.9,49.4c0-0.1-0.1-0.1-0.1-0.2
				c-0.1-0.1-0.1-0.2-0.2-0.4c-0.1-0.2-0.1-0.3-0.2-0.5c0-0.1,0-0.1,0-0.2c0,0,0-0.1,0-0.1c0-0.1,0-0.2,0-0.2c0-0.4,0-0.9,0.1-1.3
				c0.3-1.9,1.5-3.2,2.7-3c0.8,0.1,1.4,1,1.6,2.1c0,0.3,0,0.7-0.1,1c-0.3,2-1.6,3.5-2.9,3.3c0,0-0.1,0-0.1,0c-0.1,0-0.3-0.1-0.4-0.2
				C174.1,49.5,174,49.4,173.9,49.4z"/>
		</g>
		<g>
			<linearGradient id="SVGID_11_" gradientUnits="userSpaceOnUse" x1="86.9818" y1="133.0988" x2="151.8333" y2="133.0988">
				<stop  offset="0" style="stop-color:#D1DBDD"/>
				<stop  offset="1" style="stop-color:#EAEDF0"/>
			</linearGradient>
			<polygon fill="none" stroke="url(#SVGID_11_)" stroke-miterlimit="10" points="151.3,122.4 150.4,123.4 149.7,123.3 146.9,116.2 
				146,115.9 145.1,113.5 143.6,115.2 144.8,118.2 144.5,119.6 147.5,127.1 146.6,128.2 145.9,128.1 143.1,120.9 142.2,120.7 
				141.3,118.2 139.8,120.1 141,123.1 140.7,124.5 143.6,132 142.8,133.1 142.1,133 139.3,125.8 138.4,125.6 137.4,123 136,124.8 
				137.2,127.9 136.9,129.3 139.9,136.8 139,137.9 138.3,137.8 135.5,130.6 134.6,130.4 133.6,127.8 132.2,129.6 133.4,132.8 
				133.1,134.1 136.1,141.7 135.2,142.7 134.6,142.6 131.7,135.5 130.9,135.2 129.8,132.6 128.4,134.3 129.6,137.5 129.3,138.9 
				132.3,146.4 131.4,147.5 130.8,147.4 127.9,140.2 127.1,140 126,137.3 124.6,139.1 125.8,142.4 125.5,143.8 128.5,151.3 
				127.6,152.4 127,152.3 124.1,145.1 123.3,144.9 122.2,142.1 120.7,143.9 122,147.2 121.7,148.6 124.7,156.1 123.8,157.2 
				123.2,157.1 120.3,149.9 119.5,149.7 118.4,146.9 117,148.7 118.3,152 118,153.4 120.9,161 120.1,162 119.4,161.9 116.6,154.7 
				115.7,154.5 114.6,151.6 113.1,153.4 114.5,156.8 114.2,158.2 117.1,165.7 116.3,166.8 115.6,166.7 112.8,159.5 111.9,159.3 
				110.8,156.4 107,161.1 95.5,159.4 96.9,162.9 96,163.9 95.3,163.9 93.5,159.1 90.7,158.7 87.5,154.8 87.5,150.5 128.3,99.4 
				144.6,101.9 148.5,106.2 147.8,110 147.4,110.5 148.6,113.5 148.3,114.8 			"/>
			<linearGradient id="SVGID_12_" gradientUnits="userSpaceOnUse" x1="6.354222e-002" y1="101.8465" x2="50.8717" y2="101.8465">
				<stop  offset="0" style="stop-color:#D1DBDD"/>
				<stop  offset="1" style="stop-color:#EAEDF0"/>
			</linearGradient>
			<path fill="none" stroke="url(#SVGID_12_)" stroke-miterlimit="10" d="M50.2,67.2L39.1,83.7c5.2,5,0.7,10.5-2.1,12.8
				c-1.9,1.5-3.1,3-3.9,4.2c-0.8,1.2-1.7,2.9-2.4,5.2c-1.1,3.5-4.6,9.8-11.4,6.6L2.4,137.6c-0.3,0.5-0.9,0.6-1.4,0.3
				c-0.3-0.2-0.4-0.5-0.4-0.8c0-0.2,0.1-0.4,0.2-0.6l16.9-25.2c-5-5-0.5-10.4,2.2-12.7c1.9-1.5,3.1-3,3.9-4.2
				c0.8-1.2,1.7-2.9,2.4-5.2c1.1-3.4,4.6-9.7,11.2-6.7l11.1-16.4c0.3-0.5,0.9-0.6,1.4-0.3c0.3,0.2,0.4,0.5,0.4,0.8
				C50.4,66.9,50.3,67.1,50.2,67.2z"/>
			<linearGradient id="SVGID_13_" gradientUnits="userSpaceOnUse" x1="-20.3027" y1="187.2034" x2="27.8906" y2="187.2034">
				<stop  offset="0" style="stop-color:#D1DBDD"/>
				<stop  offset="1" style="stop-color:#EAEDF0"/>
			</linearGradient>
			<path fill="none" stroke="url(#SVGID_13_)" stroke-miterlimit="10" d="M26.7,171.8l-10.6,15v0l0,0c0,0-0.1,0.1-0.4,0.2
				c0,0,0,0,0,0c-1.7,0.9-1.8,2.5-1.8,2.8l0,0l0,0c0,0,0,0,0,0s0,0,0,0l-3,4.3c0,0-2.1,1.1-5.6,0.3l-16.2,22.9l-1.2-0.9l15.9-22.4
				c-1.5-0.5-3.2-1.3-5.1-2.6c-1.4-1-2.4-1.9-3.3-2.9c-0.3-0.3-0.5-0.6-0.7-0.9l-13,18.1l-1.2-0.9l13.3-18.5
				c-2.1-3.2-1.9-5.8-1.9-5.8l3-4c0-0.2,0-0.3,0-0.3s2-0.6,2.2-2.3c0-0.5,0-0.8,0-0.8l10.8-14.9l0,0c2-2.8,7.8-2,13,1.7
				c1.2,0.8,2.2,1.7,3.1,2.7C27,166.1,28.3,169.7,26.7,171.8z"/>
			<linearGradient id="SVGID_15_" gradientUnits="userSpaceOnUse" x1="33.6952" y1="211.0035" x2="79.0227" y2="211.0035">
				<stop  offset="0" style="stop-color:#D1DBDD"/>
				<stop  offset="1" style="stop-color:#EAEDF0"/>
			</linearGradient>
			<path fill="none" stroke="url(#SVGID_15_)" stroke-miterlimit="10" d="M78.4,197.9l-9.9-19.5l-1.8-0.2l-3,4.6c0,0,1.1,3-2.1,3.1
				l-3.1,4.8l-5.6-0.3l-8,12.2l1.7,3.3l-1.9,3l0,1.6l-10.6,16.5l0.3,2l0.4-0.6l0.2,1L46,212.4l1,0l1.6-2.5l1.5,2.8l-2,3.1l0,1.6
				l-10.6,16.5l0.3,2l0.4-0.6l0.2,1l10.9-17.1l1,0l1.7-2.6l1.4,2.8l-2.1,3.2l0,1.6l-10.6,16.5l0.3,2l0.4-0.6l0.2,1l10.9-17.1l1,0
				l2.4-3.7l6.4,0.2l8-12.3l3-4.7c0,0-1-1.2,0-2.7l-0.3,0l2,0L78.4,197.9z M66.2,197.6c0-0.1-0.1-0.1-0.1-0.2
				c-0.1-0.1-0.1-0.2-0.2-0.4c-0.1-0.2-0.1-0.3-0.2-0.5c0-0.1,0-0.1,0-0.2c0,0,0-0.1,0-0.1c0-0.1,0-0.2,0-0.2c0-0.4,0-0.9,0.1-1.3
				c0.3-1.9,1.5-3.2,2.7-3c0.8,0.1,1.4,1,1.6,2.1c0,0.3,0,0.7-0.1,1c-0.3,2-1.6,3.5-2.9,3.3c0,0-0.1,0-0.1,0c-0.1,0-0.3-0.1-0.4-0.2
				C66.4,197.7,66.3,197.7,66.2,197.6z"/>
			<linearGradient id="SVGID_16_" gradientUnits="userSpaceOnUse" x1="48.0733" y1="116.2435" x2="90.6991" y2="116.2435">
				<stop  offset="0" style="stop-color:#D1DBDD"/>
				<stop  offset="1" style="stop-color:#EAEDF0"/>
			</linearGradient>
			<path fill="none" stroke="url(#SVGID_16_)" stroke-miterlimit="10" d="M89.4,103.4l-10.1,15.8l-4.4,0.1l-2.3,3.7l-1.1,0l-15,23.5
				l-0.2-1l-0.4,0.6l-0.4-2.1l14.6-22.9l0-1.7l2.1-3.3l-1.5-2.9l-1.7,2.7l-1.1,0.1l-15,23.5l-0.2-1l-0.4,0.6l-0.4-2.1l14.6-22.9
				l0-1.7l2.1-3.2l-1.5-3l-1.7,2.7l-1.1,0l-15,23.5l-0.2-1l-0.4,0.6l-0.4-2.1l14.6-22.9l0-1.7l2.1-3.2l-2-3.9l8.4-13.1
				c3,0.1,6.6,1.3,10,3.5C88.4,93,91.9,99.6,89.4,103.4z"/>
		</g>
	</g>
</g>
<g opacity="0.18">
	<defs>
		<path id="SVGID_944_" opacity="0.18" d="M-336.9,230.4c0,3.9-3.1,7-7,7h-449.7c-3.9,0-7-3.1-7-7v-554.1c0-3.9,3.1-7,7-7h449.7
			c3.9,0,7,3.1,7,7V230.4z"/>
	</defs>
	<clipPath id="SVGID_18_">
		<use xlink:href="#SVGID_944_"  overflow="visible"/>
	</clipPath>
	<g clip-path="url(#SVGID_18_)">
		<g>
			<linearGradient id="SVGID_19_" gradientUnits="userSpaceOnUse" x1="88.1696" y1="-15.121" x2="153.0212" y2="-15.121">
				<stop  offset="0" style="stop-color:#D1DBDD"/>
				<stop  offset="1" style="stop-color:#EAEDF0"/>
			</linearGradient>
			<polygon fill="none" stroke="url(#SVGID_19_)" stroke-miterlimit="10" points="152.4,-25.9 151.6,-24.8 150.9,-24.9 148.1,-32.1 
				147.2,-32.3 146.3,-34.8 144.8,-33 146,-30 145.7,-28.6 148.7,-21.1 147.8,-20 147.1,-20.1 144.3,-27.3 143.4,-27.5 142.5,-30 
				141,-28.2 142.2,-25.1 141.9,-23.7 144.8,-16.2 144,-15.1 143.3,-15.2 140.5,-22.4 139.6,-22.6 138.6,-25.2 137.2,-23.4 
				138.4,-20.3 138.1,-18.9 141,-11.4 140.2,-10.4 139.5,-10.4 136.7,-17.6 135.8,-17.8 134.8,-20.4 133.4,-18.6 134.6,-15.5 
				134.3,-14.1 137.3,-6.6 136.4,-5.5 135.7,-5.6 132.9,-12.8 132.1,-13 131,-15.7 129.6,-13.9 130.8,-10.7 130.5,-9.3 133.5,-1.8 
				132.6,-0.7 131.9,-0.8 129.1,-8 128.3,-8.2 127.2,-10.9 125.7,-9.1 127,-5.8 126.7,-4.4 129.7,3.1 128.8,4.2 128.1,4.1 
				125.3,-3.1 124.5,-3.3 123.4,-6.1 121.9,-4.3 123.2,-1 122.9,0.4 125.9,7.9 125,8.9 124.4,8.9 121.5,1.7 120.7,1.5 119.6,-1.3 
				118.1,0.4 119.5,3.8 119.2,5.2 122.1,12.7 121.2,13.8 120.6,13.7 117.8,6.5 116.9,6.3 115.8,3.4 114.3,5.2 115.7,8.6 115.4,10 
				118.3,17.5 117.4,18.6 116.8,18.5 114,11.3 113.1,11.1 112,8.2 108.2,12.9 96.7,11.2 98.1,14.7 97.2,15.7 96.5,15.6 94.7,10.9 
				91.9,10.5 88.7,6.6 88.7,2.3 129.5,-48.8 145.8,-46.4 149.7,-42 149,-38.2 148.6,-37.7 149.8,-34.8 149.5,-33.4 			"/>
			<linearGradient id="SVGID_20_" gradientUnits="userSpaceOnUse" x1="-19.1149" y1="38.9837" x2="29.0785" y2="38.9837">
				<stop  offset="0" style="stop-color:#D1DBDD"/>
				<stop  offset="1" style="stop-color:#EAEDF0"/>
			</linearGradient>
			<path fill="none" stroke="url(#SVGID_20_)" stroke-miterlimit="10" d="M27.9,23.6l-10.6,15v0l0,0c0,0-0.1,0.1-0.4,0.2
				c0,0,0,0,0,0c-1.7,0.9-1.8,2.5-1.8,2.8l0,0l0,0c0,0,0,0,0,0s0,0,0,0l-3,4.3c0,0-2.1,1.1-5.6,0.3L-9.7,69.2l-1.2-0.9L5,45.9
				c-1.5-0.5-3.2-1.3-5.1-2.6c-1.4-1-2.4-1.9-3.3-2.9c-0.3-0.3-0.5-0.6-0.7-0.9l-13,18.1l-1.2-0.9l13.3-18.5C-7.2,35-7,32.5-7,32.5
				l3-4c0-0.2,0-0.3,0-0.3s2-0.6,2.2-2.3c0-0.5,0-0.8,0-0.8L9,10.2l0,0c2-2.8,7.8-2,13,1.7c1.2,0.8,2.2,1.7,3.1,2.7
				C28.2,17.8,29.5,21.5,27.9,23.6z"/>
			<linearGradient id="SVGID_21_" gradientUnits="userSpaceOnUse" x1="34.8831" y1="62.7838" x2="80.2106" y2="62.7838">
				<stop  offset="0" style="stop-color:#D1DBDD"/>
				<stop  offset="1" style="stop-color:#EAEDF0"/>
			</linearGradient>
			<path fill="none" stroke="url(#SVGID_21_)" stroke-miterlimit="10" d="M79.6,49.7l-9.9-19.5L67.9,30l-3,4.6c0,0,1.1,3-2.1,3.1
				l-3.1,4.8l-5.6-0.3l-8,12.2l1.7,3.3l-1.9,3l0,1.6L35.4,78.9l0.3,2l0.4-0.6l0.2,1l10.9-17.1l1,0l1.6-2.5l1.5,2.8l-2,3.1l0,1.6
				L38.8,85.6l0.3,2l0.4-0.6l0.2,1l10.9-17.1l1,0l1.7-2.6l1.4,2.8l-2.1,3.2l0,1.6L42.1,92.4l0.3,2l0.4-0.6l0.2,1l10.9-17.1l1,0
				l2.4-3.7l6.4,0.2l8-12.3l3-4.7c0,0-1-1.2,0-2.7l-0.3,0l2,0L79.6,49.7z M67.4,49.4c0-0.1-0.1-0.1-0.1-0.2
				c-0.1-0.1-0.1-0.2-0.2-0.4c-0.1-0.2-0.1-0.3-0.2-0.5c0-0.1,0-0.1,0-0.2c0,0,0-0.1,0-0.1c0-0.1,0-0.2,0-0.2c0-0.4,0-0.9,0.1-1.3
				c0.3-1.9,1.5-3.2,2.7-3c0.8,0.1,1.4,1,1.6,2.1c0,0.3,0,0.7-0.1,1c-0.3,2-1.6,3.5-2.9,3.3c0,0-0.1,0-0.1,0c-0.1,0-0.3-0.1-0.4-0.2
				C67.6,49.5,67.5,49.4,67.4,49.4z"/>
		</g>
		<g>
			<linearGradient id="SVGID_22_" gradientUnits="userSpaceOnUse" x1="-19.5406" y1="133.0988" x2="45.3109" y2="133.0988">
				<stop  offset="0" style="stop-color:#D1DBDD"/>
				<stop  offset="1" style="stop-color:#EAEDF0"/>
			</linearGradient>
			<polygon fill="none" stroke="url(#SVGID_22_)" stroke-miterlimit="10" points="44.7,122.4 43.9,123.4 43.2,123.3 40.4,116.2 
				39.5,115.9 38.5,113.5 37.1,115.2 38.3,118.2 38,119.6 40.9,127.1 40.1,128.2 39.4,128.1 36.6,120.9 35.7,120.7 34.7,118.2 
				33.3,120.1 34.5,123.1 34.2,124.5 37.1,132 36.2,133.1 35.6,133 32.8,125.8 31.9,125.6 30.9,123 29.5,124.8 30.7,127.9 
				30.4,129.3 33.3,136.8 32.4,137.9 31.8,137.8 29,130.6 28.1,130.4 27.1,127.8 25.7,129.6 26.9,132.8 26.6,134.1 29.6,141.7 
				28.7,142.7 28,142.6 25.2,135.5 24.3,135.2 23.3,132.6 21.9,134.3 23.1,137.5 22.8,138.9 25.8,146.4 24.9,147.5 24.2,147.4 
				21.4,140.2 20.5,140 19.5,137.3 18,139.1 19.3,142.4 19,143.8 22,151.3 21.1,152.4 20.4,152.3 17.6,145.1 16.7,144.9 15.7,142.1 
				14.2,143.9 15.5,147.2 15.2,148.6 18.2,156.1 17.3,157.2 16.6,157.1 13.8,149.9 13,149.7 11.9,146.9 10.4,148.7 11.8,152 
				11.4,153.4 14.4,161 13.5,162 12.9,161.9 10.1,154.7 9.2,154.5 8,151.6 6.6,153.4 8,156.8 7.7,158.2 10.6,165.7 9.7,166.8 
				9.1,166.7 6.3,159.5 5.4,159.3 4.2,156.4 0.5,161.1 -11,159.4 -9.7,162.9 -10.5,163.9 -11.2,163.9 -13,159.1 -15.8,158.7 
				-19,154.8 -19,150.5 21.8,99.4 38.1,101.9 42,106.2 41.3,110 40.9,110.5 42.1,113.5 41.8,114.8 			"/>
		</g>
		<g>
			<linearGradient id="SVGID_23_" gradientUnits="userSpaceOnUse" x1="63.9991" y1="101.8465" x2="114.8072" y2="101.8465">
				<stop  offset="0" style="stop-color:#D1DBDD"/>
				<stop  offset="1" style="stop-color:#EAEDF0"/>
			</linearGradient>
			<path fill="none" stroke="url(#SVGID_23_)" stroke-miterlimit="10" d="M114.1,67.2l-11.1,16.5c5.2,5,0.7,10.5-2.1,12.8
				c-1.9,1.5-3.1,3-3.9,4.2c-0.8,1.2-1.7,2.9-2.4,5.2c-1.1,3.5-4.6,9.8-11.4,6.6l-16.9,25.1c-0.3,0.5-0.9,0.6-1.4,0.3
				c-0.3-0.2-0.4-0.5-0.4-0.8c0-0.2,0.1-0.4,0.2-0.6l16.9-25.2c-5-5-0.5-10.4,2.2-12.7c1.9-1.5,3.1-3,3.9-4.2
				c0.8-1.2,1.7-2.9,2.4-5.2c1.1-3.4,4.6-9.7,11.2-6.7l11.1-16.4c0.3-0.5,0.9-0.6,1.4-0.3c0.3,0.2,0.4,0.5,0.4,0.8
				C114.3,66.9,114.3,67.1,114.1,67.2z"/>
			<linearGradient id="SVGID_24_" gradientUnits="userSpaceOnUse" x1="43.6328" y1="187.2034" x2="91.8261" y2="187.2034">
				<stop  offset="0" style="stop-color:#D1DBDD"/>
				<stop  offset="1" style="stop-color:#EAEDF0"/>
			</linearGradient>
			<path fill="none" stroke="url(#SVGID_24_)" stroke-miterlimit="10" d="M90.7,171.8l-10.6,15v0l0,0c0,0-0.1,0.1-0.4,0.2
				c0,0,0,0,0,0c-1.7,0.9-1.8,2.5-1.8,2.8l0,0l0,0c0,0,0,0,0,0s0,0,0,0l-3,4.3c0,0-2.1,1.1-5.6,0.3L53,217.4l-1.2-0.9l15.9-22.4
				c-1.5-0.5-3.2-1.3-5.1-2.6c-1.4-1-2.4-1.9-3.3-2.9c-0.3-0.3-0.5-0.6-0.7-0.9l-13,18.1l-1.2-0.9l13.3-18.5
				c-2.1-3.2-1.9-5.8-1.9-5.8l3-4c0-0.2,0-0.3,0-0.3s2-0.6,2.2-2.3c0-0.5,0-0.8,0-0.8l10.8-14.9l0,0c2-2.8,7.8-2,13,1.7
				c1.2,0.8,2.2,1.7,3.1,2.7C91,166.1,92.2,169.7,90.7,171.8z"/>
			<linearGradient id="SVGID_25_" gradientUnits="userSpaceOnUse" x1="97.6307" y1="211.0035" x2="142.9582" y2="211.0035">
				<stop  offset="0" style="stop-color:#D1DBDD"/>
				<stop  offset="1" style="stop-color:#EAEDF0"/>
			</linearGradient>
			<path fill="none" stroke="url(#SVGID_25_)" stroke-miterlimit="10" d="M142.4,197.9l-9.9-19.5l-1.8-0.2l-3,4.6c0,0,1.1,3-2.1,3.1
				l-3.1,4.8l-5.6-0.3l-8,12.2l1.7,3.3l-1.9,3l0,1.6l-10.6,16.5l0.3,2l0.4-0.6l0.2,1l10.9-17.1l1,0l1.6-2.5l1.5,2.8l-2,3.1l0,1.6
				l-10.6,16.5l0.3,2l0.4-0.6l0.2,1l10.9-17.1l1,0l1.7-2.6l1.4,2.8l-2.1,3.2l0,1.6l-10.6,16.5l0.3,2l0.4-0.6l0.2,1l10.9-17.1l1,0
				l2.4-3.7l6.4,0.2l8-12.3l3-4.7c0,0-1-1.2,0-2.7l-0.3,0l2,0L142.4,197.9z M130.1,197.6c0-0.1-0.1-0.1-0.1-0.2
				c-0.1-0.1-0.1-0.2-0.2-0.4c-0.1-0.2-0.1-0.3-0.2-0.5c0-0.1,0-0.1,0-0.2c0,0,0-0.1,0-0.1c0-0.1,0-0.2,0-0.2c0-0.4,0-0.9,0.1-1.3
				c0.3-1.9,1.5-3.2,2.7-3c0.8,0.1,1.4,1,1.6,2.1c0,0.3,0,0.7-0.1,1c-0.3,2-1.6,3.5-2.9,3.3c0,0-0.1,0-0.1,0c-0.1,0-0.3-0.1-0.4-0.2
				C130.3,197.7,130.2,197.7,130.1,197.6z"/>
			<linearGradient id="SVGID_26_" gradientUnits="userSpaceOnUse" x1="112.0088" y1="116.2435" x2="154.6346" y2="116.2435">
				<stop  offset="0" style="stop-color:#D1DBDD"/>
				<stop  offset="1" style="stop-color:#EAEDF0"/>
			</linearGradient>
			<path fill="none" stroke="url(#SVGID_26_)" stroke-miterlimit="10" d="M153.4,103.4l-10.1,15.8l-4.4,0.1l-2.3,3.7l-1.1,0
				l-15,23.5l-0.2-1l-0.4,0.6l-0.4-2.1l14.6-22.9l0-1.7l2.1-3.3l-1.5-2.9l-1.7,2.7L132,116l-15,23.5l-0.2-1l-0.4,0.6l-0.4-2.1
				l14.6-22.9l0-1.7l2.1-3.2l-1.5-3l-1.7,2.7l-1.1,0l-15,23.5l-0.2-1l-0.4,0.6l-0.4-2.1l14.6-22.9l0-1.7l2.1-3.2l-2-3.9l8.4-13.1
				c3,0.1,6.6,1.3,10,3.5C152.3,93,155.8,99.6,153.4,103.4z"/>
		</g>
		<g>
			<linearGradient id="SVGID_27_" gradientUnits="userSpaceOnUse" x1="145.9496" y1="38.9837" x2="194.1429" y2="38.9837">
				<stop  offset="0" style="stop-color:#D1DBDD"/>
				<stop  offset="1" style="stop-color:#EAEDF0"/>
			</linearGradient>
			<path fill="none" stroke="url(#SVGID_27_)" stroke-miterlimit="10" d="M193,23.6l-10.6,15v0l0,0c0,0-0.1,0.1-0.4,0.2c0,0,0,0,0,0
				c-1.7,0.9-1.8,2.5-1.8,2.8l0,0l0,0c0,0,0,0,0,0s0,0,0,0l-3,4.3c0,0-2.1,1.1-5.6,0.3l-16.2,22.9l-1.2-0.9L170,45.9
				c-1.5-0.5-3.2-1.3-5.1-2.6c-1.4-1-2.4-1.9-3.3-2.9c-0.3-0.3-0.5-0.6-0.7-0.9l-13,18.1l-1.2-0.9L160,38.2
				c-2.1-3.2-1.9-5.8-1.9-5.8l3-4c0-0.2,0-0.3,0-0.3s2-0.6,2.2-2.3c0-0.5,0-0.8,0-0.8l10.8-14.9l0,0c2-2.8,7.8-2,13,1.7
				c1.2,0.8,2.2,1.7,3.1,2.7C193.3,17.8,194.5,21.5,193,23.6z"/>
		</g>
	</g>
</g>
<g>
	<g>
		<path fill="#FFFFFF" d="M21.9,179H19L14.1,165L9.3,179H6.3L0,158.8h3.6l4.3,14l4.7-14h2.9l4.8,13.9l4.1-13.9h3.5L21.9,179z"/>
		<path fill="#FFFFFF" d="M29.5,158h3.3v7.4c1.2-1.2,2.8-1.6,4.4-1.6c4,0,6.2,2.1,6.2,6.9v8.5h-3.3v-8.3c0-2.8-1.2-4-3.6-4
			c-1.6,0-2.9,1-3.7,2.5v9.8h-3.3V158z"/>
		<path fill="#FFFFFF" d="M46.4,165.9c1.4-1.4,3.8-2.2,6.3-2.2c4,0,6.2,2.3,6.2,6.2v9.2h-3.3v-1.6c-0.9,1-2.4,1.8-4.7,1.8
			c-3.3,0-5.5-1.8-5.5-4.7c0-3.4,3-4.8,7-4.8c1.1,0,2.4,0.2,3.1,0.4c0-2.2-0.8-3.4-3.2-3.4c-1.6,0-2.9,0.5-4.3,1.6L46.4,165.9z
			 M55.5,174.3v-1.4c-0.6-0.2-1.7-0.4-2.7-0.4c-2.4,0-4,0.5-4,2c0,1.2,1.1,1.9,2.8,1.9C53.6,176.4,54.9,175.3,55.5,174.3z"/>
		<path fill="#FFFFFF" d="M60.3,164h2.6v-3.1h3.3v3.1h4.9v3.1h-4.9v5.8c0,2.4,0.6,3.3,1.9,3.3c0.9,0,1.6-0.6,2.1-1.3l2,1.8
			c-0.8,1.4-2.5,2.5-4.6,2.5c-2.9,0-4.7-1.8-4.7-5.4v-6.7h-2.6V164z"/>
		<path fill="#FFFFFF" d="M73.4,168.2c0-2.8,2.3-4.5,6.2-4.5c2.7,0,5.1,1.2,6.1,2.7l-2.3,2.1c-0.9-1-2.5-1.7-4.4-1.7
			c-1.2,0-2.2,0.3-2.2,1.4c0,2.1,9.1,1.4,9.1,6.6c0,3.1-2.9,4.6-6.2,4.6c-3.4,0-5.9-1.6-7-3.6l2.6-1.8c0.8,1.3,2.7,2.3,4.7,2.3
			c1.3,0,2.5-0.4,2.5-1.5C82.5,172.5,73.4,173.3,73.4,168.2z"/>
		<path fill="#FFFFFF" d="M102.2,158.8h2.7l8.9,20.2h-3.7l-2-4.5h-9.2l-1.9,4.5h-3.6L102.2,158.8z M100.1,171.6h6.6l-3.3-7.7
			L100.1,171.6z"/>
		<path fill="#FFFFFF" d="M115.2,164h3.3v1.4c1-1.2,2.7-1.7,4.2-1.7c4.5,0,7.3,3.2,7.3,7.6c0,4.6-3,8-7.5,8c-1.7,0-3.3-0.4-3.9-1.2
			v6.8h-3.3V164z M118.5,169.2v5.2c0.7,1.2,2.1,1.8,3.6,1.8c2.7,0,4.5-1.9,4.5-4.7c0-3-1.6-4.8-4.2-4.8
			C120.4,166.7,119.1,167.9,118.5,169.2z"/>
		<path fill="#FFFFFF" d="M132.3,164h3.3v1.4c1-1.2,2.7-1.7,4.2-1.7c4.5,0,7.3,3.2,7.3,7.6c0,4.6-3,8-7.5,8c-1.7,0-3.3-0.4-3.9-1.2
			v6.8h-3.3V164z M135.6,169.2v5.2c0.7,1.2,2.1,1.8,3.6,1.8c2.7,0,4.5-1.9,4.5-4.7c0-3-1.6-4.8-4.2-4.8
			C137.5,166.7,136.2,167.9,135.6,169.2z"/>
	</g>
</g>
<path fill="#FFFFFF" d="M140.5,66.1c0,33.1-26.8,59.9-59.9,59.9c-17.1,0-43.8-12.4-53.6-4.5c2.5-14.5-6.3-39.3-6.3-55.4
	C20.7,33,47.5,6.2,80.6,6.2S140.5,33,140.5,66.1z"/>
<path fill="#00BB9C" d="M127.3,19.2C114.9,6.8,98.4,0,80.9,0C44.8,0,15.3,29.4,15.3,65.5c0,11.6,3,22.8,8.8,32.8l-9.3,34l34.8-9.1
	c9.6,5.2,20.4,8,31.3,8h0c36.1,0,65.6-29.4,65.6-65.5C146.5,48.1,139.7,31.6,127.3,19.2 M80.9,120.1L80.9,120.1
	c-9.8,0-19.4-2.6-27.8-7.6l-2-1.2l-20.6,5.4L36,96.6l-1.3-2.1c-5.5-8.7-8.3-18.7-8.3-29c0-30,24.5-54.5,54.5-54.5
	c14.6,0,28.2,5.7,38.5,16s16,24,15.9,38.5C135.4,95.6,110.9,120.1,80.9,120.1 M110.8,79.3c-1.6-0.8-9.7-4.8-11.2-5.3
	c-1.5-0.5-2.6-0.8-3.7,0.8c-1.1,1.6-4.2,5.3-5.2,6.4c-1,1.1-1.9,1.2-3.5,0.4c-1.6-0.8-6.9-2.5-13.2-8.1c-4.9-4.3-8.2-9.7-9.1-11.3
	c-1-1.6-0.1-2.5,0.7-3.3c0.7-0.7,1.6-1.9,2.5-2.9c0.8-1,1.1-1.6,1.6-2.7c0.5-1.1,0.3-2-0.1-2.9c-0.4-0.8-3.7-8.9-5.1-12.2
	c-1.3-3.2-2.7-2.8-3.7-2.8c-1,0-2-0.1-3.1-0.1c-1.1,0-2.9,0.4-4.4,2c-1.5,1.6-5.7,5.6-5.7,13.7s5.9,15.8,6.7,16.9
	c0.8,1.1,11.6,17.6,28,24.7c3.9,1.7,7,2.7,9.3,3.5c3.9,1.2,7.5,1.1,10.3,0.6c3.1-0.5,9.7-4,11.1-7.8c1.4-3.8,1.4-7.1,1-7.8
	C113.5,80.5,112.4,80.1,110.8,79.3"/>
</svg>
