<svg width="88" height="116" viewBox="0 0 88 116" fill="none" xmlns="http://www.w3.org/2000/svg">
<path d="M17.4515 98.4H15.2915L12.7355 107.076L9.74748 98.4H7.96548L5.03148 107.112L2.34948 98.4H0.0814766L4.00548 111H5.84148L8.82948 102.234L11.9075 111H13.7255L17.4515 98.4ZM18.4198 111H20.4718V104.898C20.9218 103.962 21.7498 103.35 22.7578 103.35C24.3058 103.35 25.0258 104.088 25.0258 105.852V111H27.0778V105.726C27.0778 102.756 25.6558 101.442 23.1898 101.442C22.1998 101.442 21.1918 101.73 20.4718 102.45V97.86H18.4198V111ZM29.9395 104.322C30.8395 103.638 31.5955 103.332 32.6215 103.332C34.1335 103.332 34.6555 104.088 34.6375 105.438C34.2055 105.294 33.3775 105.186 32.7115 105.186C30.2275 105.186 28.3375 106.068 28.3375 108.156C28.3375 109.956 29.6875 111.108 31.7395 111.108C33.1255 111.108 34.0795 110.586 34.6375 109.974V111H36.6895V105.276C36.6895 102.828 35.3215 101.424 32.8555 101.424C31.3255 101.424 29.8135 101.946 28.9315 102.81L29.9395 104.322ZM32.1895 109.326C31.1455 109.326 30.4615 108.876 30.4615 108.138C30.4615 107.202 31.4515 106.896 32.9275 106.896C33.5935 106.896 34.2595 107.022 34.6375 107.148V108.048C34.2235 108.678 33.4315 109.326 32.1895 109.326ZM37.6468 103.548H39.2668V107.742C39.2668 109.974 40.4368 111.108 42.2188 111.108C43.4968 111.108 44.5768 110.442 45.0808 109.56L43.8568 108.408C43.5328 108.822 43.1008 109.2 42.5248 109.2C41.6788 109.2 41.3188 108.678 41.3188 107.166V103.548H44.3428V101.64H41.3188V99.714H39.2668V101.64H37.6468V103.548ZM51.4363 108.336C51.4363 109.002 50.6983 109.254 49.9063 109.254C48.6823 109.254 47.5123 108.624 46.9903 107.796L45.3703 108.912C46.0363 110.19 47.6203 111.162 49.7083 111.162C51.7783 111.162 53.5603 110.28 53.5603 108.318C53.5603 105.024 47.8903 105.474 47.8903 104.178C47.8903 103.53 48.5203 103.332 49.2763 103.332C50.4463 103.332 51.4363 103.764 51.9943 104.412L53.3983 103.08C52.7863 102.198 51.2743 101.424 49.6183 101.424C47.2063 101.424 45.7663 102.486 45.7663 104.214C45.7663 107.418 51.4363 106.932 51.4363 108.336ZM53.94 111H56.19L57.396 108.21H63.138L64.362 111H66.648L61.122 98.4H59.466L53.94 111ZM60.258 101.55L62.328 106.338H58.188L60.258 101.55ZM67.5858 114.6H69.6378V110.388C70.0518 110.892 71.0418 111.162 72.0858 111.162C74.8938 111.162 76.7658 109.02 76.7658 106.158C76.7658 103.386 75.0378 101.424 72.2298 101.424C71.2938 101.424 70.2318 101.748 69.6378 102.486V101.64H67.5858V114.6ZM72.0138 103.332C73.6338 103.332 74.6418 104.43 74.6418 106.32C74.6418 108.066 73.5258 109.254 71.8518 109.254C70.9338 109.254 70.0878 108.858 69.6378 108.102V104.862C70.0158 104.052 70.8258 103.332 72.0138 103.332ZM78.2382 114.6H80.2902V110.388C80.7042 110.892 81.6942 111.162 82.7382 111.162C85.5462 111.162 87.4182 109.02 87.4182 106.158C87.4182 103.386 85.6902 101.424 82.8822 101.424C81.9462 101.424 80.8842 101.748 80.2902 102.486V101.64H78.2382V114.6ZM82.6662 103.332C84.2862 103.332 85.2942 104.43 85.2942 106.32C85.2942 108.066 84.1782 109.254 82.5042 109.254C81.5862 109.254 80.7402 108.858 80.2902 108.102V104.862C80.6682 104.052 81.4782 103.332 82.6662 103.332Z" fill="white"/>
<path d="M6.11676 79.5446L11.5443 59.9801C8.19981 54.249 6.43931 47.7483 6.43963 41.1312C6.43963 20.3337 23.5682 3.39136 44.5971 3.39136C54.811 3.39136 64.3793 7.33036 71.6167 14.4462C75.1694 17.9439 77.9864 22.1027 79.9054 26.6828C81.8243 31.2629 82.807 36.1735 82.7969 41.1312C82.7969 61.9286 65.666 78.8686 44.6371 78.8686C38.2434 78.8686 31.9722 77.279 26.3821 74.256L6.11676 79.5469V79.5446Z" fill="url(#paint0_linear_101_14)"/>
<path d="M4.75 80.8965L10.3802 60.6561C6.91993 54.7186 5.10241 47.9844 5.11058 41.1313C5.07051 19.5367 22.8047 2 44.5972 2C55.1718 2 65.1029 6.05554 72.5831 13.4534C76.2689 17.0797 79.1904 21.3934 81.1783 26.1445C83.1662 30.8955 84.1811 35.9895 84.164 41.1313C84.164 62.6839 66.4297 80.2206 44.6373 80.2206C38.0031 80.2206 31.5293 78.589 25.7388 75.4495L4.75 80.8965ZM26.665 68.4106L27.8693 69.1261C32.9347 72.0904 38.7115 73.6559 44.5972 73.6595C62.692 73.6595 77.4497 59.0665 77.4497 41.1686C77.4497 32.5004 74.0325 24.3101 67.8391 18.1872C64.7935 15.1581 61.1718 12.755 57.1829 11.1165C53.1939 9.47803 48.9165 8.63647 44.5972 8.64036C26.4623 8.64036 11.707 23.2356 11.707 41.1313C11.707 47.2542 13.4345 53.2606 16.7315 58.4302L17.4951 59.6632L14.158 71.6713L26.6627 68.4106H26.665Z" fill="url(#paint1_linear_101_14)"/>
<path fill-rule="evenodd" clip-rule="evenodd" d="M34.746 24.7482C34.0225 23.1167 33.2189 23.077 32.5354 23.077C31.9321 23.0374 31.2864 23.0374 30.6029 23.0374C29.9619 23.0374 28.8755 23.2752 27.9493 24.2704C27.0255 25.2633 24.492 27.6104 24.492 32.4211C24.492 37.2341 28.0318 41.8863 28.5125 42.5226C28.9957 43.1589 35.347 53.3374 45.4007 57.2764C53.767 60.5372 55.4544 59.9009 57.262 59.7004C59.072 59.5023 63.0925 57.3557 63.9386 55.0482C64.7398 52.7827 64.7399 50.7945 64.5018 50.396C64.2591 49.9998 63.5756 49.7597 62.6117 49.2422C61.6054 48.7668 56.7812 46.3801 55.8551 46.0607C54.9312 45.7438 54.2879 45.5853 53.6445 46.5386C53.0011 47.5338 51.111 49.7201 50.5101 50.3564C49.9444 50.9927 49.3411 51.0719 48.3772 50.5941C47.3709 50.1186 44.1941 49.0838 40.4163 45.7438C37.4798 43.1566 35.5096 39.9378 34.9063 38.9845C34.343 37.9893 34.8262 37.4719 35.3494 36.9941C35.7924 36.5582 36.3533 35.8427 36.8364 35.2856C37.3196 34.7262 37.4798 34.2904 37.8428 33.6541C38.1633 33.0178 38.003 32.4211 37.7626 31.9456C37.5199 31.5074 35.6298 26.6944 34.746 24.7459V24.7482Z" fill="white"/>
<defs>
<linearGradient id="paint0_linear_101_14" x1="44.4486" y1="79.5399" x2="44.4486" y2="3.37737" gradientUnits="userSpaceOnUse">
<stop stop-color="#20B038"/>
<stop offset="1" stop-color="#60D66A"/>
</linearGradient>
<linearGradient id="paint1_linear_101_14" x1="44.4487" y1="80.9058" x2="44.4487" y2="2.01165" gradientUnits="userSpaceOnUse">
<stop stop-color="#F9F9F9"/>
<stop offset="1" stop-color="white"/>
</linearGradient>
</defs>
</svg>
