<?xml version="1.0" encoding="utf-8"?>
<!-- Generator: Adobe Illustrator 17.1.0, SVG Export Plug-In . SVG Version: 6.00 Build 0)  -->
<!DOCTYPE svg PUBLIC "-//W3C//DTD SVG 1.1//EN" "http://www.w3.org/Graphics/SVG/1.1/DTD/svg11.dtd">
<svg version="1.1" id="Слой_1" xmlns="http://www.w3.org/2000/svg" xmlns:xlink="http://www.w3.org/1999/xlink" x="0px" y="0px"
	 width="24.8px" height="24.9px" viewBox="0 0 24.8 24.9" enable-background="new 0 0 24.8 24.9" xml:space="preserve">
<g>
	<g>
		<g opacity="0.18">
			<defs>
				<path id="SVGID_1511_" opacity="0.18" d="M-532.8,231.7c0,3.9-3.1,7-7,7h-449.7c-3.9,0-7-3.1-7-7v-554.1c0-3.9,3.1-7,7-7h449.7
					c3.9,0,7,3.1,7,7V231.7z"/>
			</defs>
			<clipPath id="SVGID_1_">
				<use xlink:href="#SVGID_1511_"  overflow="visible"/>
			</clipPath>
			<g clip-path="url(#SVGID_1_)">
				<g>
					<linearGradient id="SVGID_3_" gradientUnits="userSpaceOnUse" x1="18.4417" y1="-30.7151" x2="61.0675" y2="-30.7151">
						<stop  offset="0" style="stop-color:#D1DBDD"/>
						<stop  offset="1" style="stop-color:#EAEDF0"/>
					</linearGradient>
					<path fill="none" stroke="url(#SVGID_3_)" stroke-miterlimit="10" d="M59.8-43.6L49.7-27.8l-4.4,0.1L43-24L42-24L27-0.5l-0.2-1
						l-0.4,0.6L26.1-3l14.6-22.9l0-1.7l2.1-3.3l-1.5-2.9L39.5-31L38.5-31l-15,23.5l-0.2-1l-0.4,0.6L22.6-10l14.6-22.9l0-1.7l2.1-3.2
						l-1.5-3L35.9-38l-1.1,0l-15,23.5l-0.2-1l-0.4,0.6L19-17l14.6-22.9l0-1.7l2.1-3.2l-2-3.9L42-61.8c3,0.1,6.6,1.3,10,3.5
						C58.8-54,62.2-47.4,59.8-43.6z"/>
				</g>
			</g>
		</g>
	</g>
</g>
<g>
	<g opacity="0.18">
		<defs>
			<path id="SVGID_1831_" opacity="0.18" d="M139.7-293.5c0,3.9-3.1,7-7,7h-449.7c-3.9,0-7-3.1-7-7v-554.1c0-3.9,3.1-7,7-7h449.7
				c3.9,0,7,3.1,7,7V-293.5z"/>
		</defs>
		<clipPath id="SVGID_4_">
			<use xlink:href="#SVGID_1831_"  overflow="visible"/>
		</clipPath>
		<g clip-path="url(#SVGID_4_)">
			<g>
				<linearGradient id="SVGID_5_" gradientUnits="userSpaceOnUse" x1="18.5915" y1="-19.9077" x2="63.9189" y2="-19.9077">
					<stop  offset="0" style="stop-color:#D1DBDD"/>
					<stop  offset="1" style="stop-color:#EAEDF0"/>
				</linearGradient>
				<path fill="none" stroke="url(#SVGID_5_)" stroke-miterlimit="10" d="M63.3-33l-9.9-19.5l-1.8-0.2l-3,4.6c0,0,1.1,3-2.1,3.1
					l-3.1,4.8l-5.6-0.3l-8,12.2l1.7,3.3l-1.9,3l0,1.6L19.1-3.8l0.3,2l0.4-0.6l0.2,1l10.9-17.1l1,0l1.6-2.5l1.5,2.8l-2,3.1l0,1.6
					L22.5,2.9l0.3,2l0.4-0.6l0.2,1l10.9-17.1l1,0l1.7-2.6l1.4,2.8l-2.1,3.2l0,1.6L25.8,9.7l0.3,2l0.4-0.6l0.2,1L37.6-5l1,0L41-8.8
					l6.4,0.2l8-12.3l3-4.7c0,0-1-1.2,0-2.7l-0.3,0l2,0L63.3-33z M51.1-33.3c0-0.1-0.1-0.1-0.1-0.2c-0.1-0.1-0.1-0.2-0.2-0.4
					c-0.1-0.2-0.1-0.3-0.2-0.5c0-0.1,0-0.1,0-0.2c0,0,0-0.1,0-0.1c0-0.1,0-0.2,0-0.2c0-0.4,0-0.9,0.1-1.3c0.3-1.9,1.5-3.2,2.7-3
					c0.8,0.1,1.4,1,1.6,2.1c0,0.3,0,0.7-0.1,1c-0.3,2-1.6,3.5-2.9,3.3c0,0-0.1,0-0.1,0c-0.1,0-0.3-0.1-0.4-0.2
					C51.3-33.2,51.2-33.3,51.1-33.3z"/>
			</g>
		</g>
	</g>
</g>
<path fill="#00BB9C" d="M21.2,3.6C18.9,1.3,15.8,0,12.5,0C5.7,0,0.1,5.5,0.1,12.4c0,2.2,0.6,4.3,1.6,6.2L0,24.9l6.6-1.7
	c1.8,1,3.8,1.5,5.9,1.5h0c6.8,0,12.4-5.5,12.4-12.4C24.8,9.1,23.5,6,21.2,3.6 M12.5,22.6L12.5,22.6c-1.8,0-3.7-0.5-5.2-1.4L6.9,21
	L3,22l1-3.8l-0.2-0.4c-1-1.6-1.6-3.5-1.6-5.5c0-5.7,4.6-10.3,10.3-10.3c2.7,0,5.3,1.1,7.3,3s3,4.5,3,7.3
	C22.7,18,18.1,22.6,12.5,22.6 M18.1,14.9c-0.3-0.2-1.8-0.9-2.1-1c-0.3-0.1-0.5-0.2-0.7,0.2c-0.2,0.3-0.8,1-1,1.2
	c-0.2,0.2-0.4,0.2-0.7,0.1c-0.3-0.2-1.3-0.5-2.5-1.5C10.2,13,9.6,12,9.4,11.7c-0.2-0.3,0-0.5,0.1-0.6c0.1-0.1,0.3-0.4,0.5-0.5
	c0.2-0.2,0.2-0.3,0.3-0.5c0.1-0.2,0.1-0.4,0-0.5c-0.1-0.2-0.7-1.7-1-2.3C9.1,6.6,8.9,6.7,8.7,6.7c-0.2,0-0.4,0-0.6,0
	C7.9,6.6,7.5,6.7,7.3,7C7,7.3,6.2,8.1,6.2,9.6s1.1,3,1.3,3.2c0.2,0.2,2.2,3.3,5.3,4.7c0.7,0.3,1.3,0.5,1.8,0.7
	c0.7,0.2,1.4,0.2,1.9,0.1c0.6-0.1,1.8-0.7,2.1-1.5c0.3-0.7,0.3-1.3,0.2-1.5C18.6,15.2,18.4,15.1,18.1,14.9"/>
</svg>
