<svg width="30" height="30" viewBox="0 0 30 30" fill="none" xmlns="http://www.w3.org/2000/svg">
<rect width="30" height="30" rx="9" fill="url(#paint0_linear_106_34)"/>
<path d="M24.4038 6.34092C23.8011 5.79061 21.3657 4.041 15.941 4.01723C15.941 4.01723 9.5438 3.63547 6.42528 6.46625C4.68933 8.18453 4.07865 10.6987 4.01424 13.8158C3.94982 16.9329 3.86648 22.7746 9.55654 24.3585H9.56199L9.55836 26.7755C9.55836 26.7755 9.52196 27.754 10.173 27.9535C10.9606 28.1956 11.4228 27.4519 12.1747 26.6502C12.5873 26.2101 13.1573 25.5636 13.5867 25.0695C17.4782 25.3936 20.4712 24.6528 20.8111 24.5433C21.5968 24.2912 26.043 23.7275 26.7661 17.8863C27.5125 11.8656 26.4051 8.05739 24.4038 6.34092Z" fill="white"/>
<path d="M22.9275 7.81776C22.432 7.37104 20.2935 6.03756 15.8313 6.01824C15.8313 6.01824 10.5474 5.67372 7.98241 7.97931C6.55483 9.37811 6.07389 11.4582 6.02116 13.9967C5.96843 16.5351 5.69523 21.3844 10.374 22.6743C10.374 22.6743 10.3556 26.2744 10.3535 26.5908C10.3535 26.8121 10.3889 26.9634 10.5163 26.9947C10.6079 27.0168 10.7452 26.9698 10.862 26.8542C11.6101 26.1086 14.0052 23.2411 14.0052 23.2411C17.2189 23.4494 19.7757 22.8197 20.0507 22.7305C20.699 22.5236 24.2057 22.2248 24.7992 17.4675C25.4125 12.5638 24.5738 9.21656 22.9275 7.81776Z" fill="#7360F2"/>
<path d="M18 14C17.9349 12.7307 17.2682 12.064 16 12" stroke="white" stroke-linecap="round" stroke-linejoin="round"/>
<path d="M19.9987 14C20.0238 12.8983 19.681 11.9779 18.9703 11.2387C18.2564 10.4968 17.2682 10.0883 16 10" stroke="white" stroke-linecap="round" stroke-linejoin="round"/>
<path d="M22 14C21.9853 12.1451 21.4065 10.6842 20.2637 9.61731C19.1209 8.55044 17.6997 8.01134 16 8" stroke="white" stroke-linecap="round" stroke-linejoin="round"/>
<path d="M16.2175 17.7131C16.2175 17.7131 16.6417 17.7488 16.8701 17.4675L17.3154 16.9073C17.5302 16.6296 18.0485 16.4524 18.5561 16.7352C18.9365 16.9521 19.3058 17.1879 19.6626 17.4417C19.9994 17.6894 20.6892 18.265 20.6914 18.265C21.02 18.5424 21.0959 18.9497 20.8722 19.3792C20.8722 19.3818 20.8704 19.3861 20.8704 19.3882C20.6239 19.8153 20.3111 20.2005 19.9436 20.5293C19.9393 20.5314 19.9393 20.5336 19.9354 20.5357C19.616 20.8025 19.3023 20.9542 18.9943 20.9907C18.9489 20.9986 18.9028 21.0015 18.8568 20.9993C18.7209 21.0006 18.5858 20.9798 18.4566 20.9377L18.4466 20.923C17.9719 20.7892 17.1794 20.4541 15.8595 19.7261C15.0958 19.3097 14.3687 18.8295 13.686 18.2904C13.3438 18.0204 13.0174 17.7309 12.7084 17.4235L12.6754 17.3906L12.6425 17.3576L12.6096 17.3247C12.5985 17.314 12.5877 17.3029 12.5766 17.2918C12.2692 16.9828 11.9797 16.6564 11.7096 16.3142C11.1706 15.6317 10.6903 14.9047 10.2738 14.1412C9.54572 12.8211 9.21066 12.0294 9.07678 11.554L9.06211 11.544C9.02014 11.4148 8.99947 11.2797 9.00089 11.1438C8.99839 11.0979 9.00115 11.0517 9.00913 11.0064C9.04755 10.6988 9.19945 10.3849 9.46482 10.0647C9.46697 10.0607 9.46912 10.0607 9.47126 10.0564C9.79998 9.68894 10.1852 9.37623 10.6125 9.13009C10.6146 9.13009 10.6189 9.12794 10.6214 9.12794C11.051 8.90423 11.4583 8.98011 11.7354 9.30691C11.7376 9.30906 12.3121 9.9988 12.5587 10.3356C12.8126 10.6927 13.0484 11.0624 13.2654 11.4431C13.5481 11.9503 13.371 12.4696 13.0932 12.6837L12.533 13.129C12.2502 13.3573 12.2874 13.7815 12.2874 13.7815C12.2874 13.7815 13.1172 16.9217 16.2175 17.7131Z" fill="white"/>
<defs>
<linearGradient id="paint0_linear_106_34" x1="27" y1="0.5" x2="1.5" y2="28.5" gradientUnits="userSpaceOnUse">
<stop stop-color="#9E90FD"/>
<stop offset="1" stop-color="#7360F2"/>
</linearGradient>
</defs>
</svg>
