<?xml version="1.0" encoding="utf-8"?>
<!-- Generator: Adobe Illustrator 17.1.0, SVG Export Plug-In . SVG Version: 6.00 Build 0)  -->
<!DOCTYPE svg PUBLIC "-//W3C//DTD SVG 1.1//EN" "http://www.w3.org/Graphics/SVG/1.1/DTD/svg11.dtd">
<svg version="1.1" id="Слой_1" xmlns="http://www.w3.org/2000/svg" xmlns:xlink="http://www.w3.org/1999/xlink" x="0px" y="0px"
	 width="21px" height="21px" viewBox="0 0 21 21" enable-background="new 0 0 21 21" xml:space="preserve">
<g>
	<g>
		<g opacity="0.18">
			<defs>
				<path id="SVGID_1511_" opacity="0.18" d="M-252.4,136c0,3.9-3.1,7-7,7h-449.7c-3.9,0-7-3.1-7-7v-554.1c0-3.9,3.1-7,7-7h449.7
					c3.9,0,7,3.1,7,7V136z"/>
			</defs>
			<clipPath id="SVGID_1_">
				<use xlink:href="#SVGID_1511_"  overflow="visible"/>
			</clipPath>
			<g clip-path="url(#SVGID_1_)">
				<g>
				</g>
				<g>
					<linearGradient id="SVGID_3_" gradientUnits="userSpaceOnUse" x1="-21.8852" y1="7.3861" x2="28.923" y2="7.3861">
						<stop  offset="0" style="stop-color:#D1DBDD"/>
						<stop  offset="1" style="stop-color:#EAEDF0"/>
					</linearGradient>
					<path fill="none" stroke="url(#SVGID_3_)" stroke-miterlimit="10" d="M28.3-27.2L17.2-10.8c5.2,5,0.7,10.5-2.1,12.8
						c-1.9,1.5-3.1,3-3.9,4.2c-0.8,1.2-1.7,2.9-2.4,5.2C7.7,14.9,4.1,21.3-2.6,18l-16.9,25.1c-0.3,0.5-0.9,0.6-1.4,0.3
						c-0.3-0.2-0.4-0.5-0.4-0.8c0-0.2,0.1-0.4,0.2-0.6l16.9-25.2c-5-5-0.5-10.4,2.2-12.7c1.9-1.5,3.1-3,3.9-4.2
						C2.6-1.3,3.5-3,4.3-5.3c1.1-3.4,4.6-9.7,11.2-6.7l11.1-16.4c0.3-0.5,0.9-0.6,1.4-0.3c0.3,0.2,0.4,0.5,0.4,0.8
						C28.4-27.6,28.4-27.4,28.3-27.2z"/>
				</g>
			</g>
		</g>
	</g>
</g>
<g>
	<circle fill="#556782" cx="10.5" cy="10.5" r="10"/>
	<circle fill="none" stroke="#FFFFFF" stroke-miterlimit="10" cx="10.5" cy="10.5" r="10"/>
	<g>
		<line fill="none" stroke="#FFFFFF" stroke-width="2" stroke-miterlimit="10" x1="6.3" y1="6.3" x2="14.7" y2="14.7"/>
		<line fill="none" stroke="#FFFFFF" stroke-width="2" stroke-miterlimit="10" x1="14.7" y1="6.3" x2="6.3" y2="14.7"/>
	</g>
</g>
</svg>
