<?xml version="1.0" encoding="utf-8"?>
<!-- Generator: Adobe Illustrator 17.1.0, SVG Export Plug-In . SVG Version: 6.00 Build 0)  -->
<!DOCTYPE svg PUBLIC "-//W3C//DTD SVG 1.1//EN" "http://www.w3.org/Graphics/SVG/1.1/DTD/svg11.dtd">
<svg version="1.1" id="Слой_1" xmlns="http://www.w3.org/2000/svg" xmlns:xlink="http://www.w3.org/1999/xlink" x="0px" y="0px"
	 width="24.3px" height="26.5px" viewBox="0 0 24.3 26.5" enable-background="new 0 0 24.3 26.5" xml:space="preserve">
<g>
	<g>
		<g opacity="0.18">
			<defs>
				<path id="SVGID_1511_" opacity="0.18" d="M-569.5,231.5c0,3.9-3.1,7-7,7h-449.7c-3.9,0-7-3.1-7-7v-554.1c0-3.9,3.1-7,7-7h449.7
					c3.9,0,7,3.1,7,7V231.5z"/>
			</defs>
			<clipPath id="SVGID_1_">
				<use xlink:href="#SVGID_1511_"  overflow="visible"/>
			</clipPath>
			<g clip-path="url(#SVGID_1_)">
				<g>
					<linearGradient id="SVGID_3_" gradientUnits="userSpaceOnUse" x1="20.6896" y1="-14.0343" x2="85.5411" y2="-14.0343">
						<stop  offset="0" style="stop-color:#D1DBDD"/>
						<stop  offset="1" style="stop-color:#EAEDF0"/>
					</linearGradient>
					<polygon fill="none" stroke="url(#SVGID_3_)" stroke-miterlimit="10" points="85,-24.8 84.1,-23.7 83.4,-23.8 80.6,-31 
						79.7,-31.2 78.8,-33.7 77.4,-31.9 78.5,-28.9 78.2,-27.5 81.2,-20 80.3,-18.9 79.6,-19 76.8,-26.2 76,-26.4 75,-28.9 
						73.5,-27.1 74.7,-24 74.4,-22.6 77.3,-15.1 76.5,-14 75.8,-14.1 73,-21.3 72.1,-21.5 71.1,-24.1 69.7,-22.3 70.9,-19.2 
						70.6,-17.9 73.6,-10.3 72.7,-9.3 72,-9.3 69.2,-16.5 68.3,-16.7 67.3,-19.3 65.9,-17.6 67.1,-14.4 66.8,-13 69.8,-5.5 
						68.9,-4.4 68.3,-4.5 65.4,-11.7 64.6,-11.9 63.5,-14.6 62.1,-12.8 63.3,-9.6 63,-8.2 66,-0.7 65.1,0.4 64.5,0.3 61.6,-6.9 
						60.8,-7.1 59.7,-9.8 58.3,-8 59.5,-4.7 59.2,-3.3 62.2,4.2 61.3,5.2 60.7,5.2 57.8,-2 57,-2.2 55.9,-5 54.5,-3.2 55.8,0.1 
						55.4,1.4 58.4,9 57.5,10 56.9,9.9 54.1,2.8 53.2,2.6 52.1,-0.3 50.7,1.5 52,4.9 51.7,6.3 54.6,13.8 53.8,14.9 53.1,14.8 
						50.3,7.6 49.4,7.4 48.3,4.5 46.9,6.3 48.2,9.7 47.9,11.1 50.8,18.6 50,19.6 49.3,19.6 46.5,12.4 45.6,12.2 44.5,9.3 40.7,14 
						29.2,12.3 30.6,15.7 29.7,16.8 29,16.7 27.2,12 24.4,11.6 21.2,7.7 21.2,3.4 62,-47.7 78.3,-45.3 82.2,-41 81.5,-37.1 
						81.2,-36.7 82.3,-33.7 82,-32.3 					"/>
					<linearGradient id="SVGID_4_" gradientUnits="userSpaceOnUse" x1="-18.2189" y1="-30.8895" x2="24.4069" y2="-30.8895">
						<stop  offset="0" style="stop-color:#D1DBDD"/>
						<stop  offset="1" style="stop-color:#EAEDF0"/>
					</linearGradient>
					<path fill="none" stroke="url(#SVGID_4_)" stroke-miterlimit="10" d="M23.1-43.7L13.1-28l-4.4,0.1l-2.3,3.7l-1.1,0l-15,23.5
						l-0.2-1L-10.2-1l-0.4-2.1L4-26l0-1.7L6-30.9l-1.5-2.9l-1.7,2.7l-1.1,0.1l-15,23.5l-0.2-1L-13.8-8l-0.4-2.1L0.5-33l0-1.7
						l2.1-3.2l-1.5-3l-1.7,2.7l-1.1,0l-15,23.5l-0.2-1l-0.4,0.6l-0.4-2.1L-3.1-40l0-1.7l2.1-3.2l-2-3.9L5.3-62c3,0.1,6.6,1.3,10,3.5
						C22.1-54.2,25.6-47.6,23.1-43.7z"/>
				</g>
			</g>
		</g>
	</g>
</g>
<g>
	<g opacity="0.18">
		<defs>
			<path id="SVGID_1831_" opacity="0.18" d="M103-293.6c0,3.9-3.1,7-7,7h-449.7c-3.9,0-7-3.1-7-7v-554.1c0-3.9,3.1-7,7-7H96
				c3.9,0,7,3.1,7,7V-293.6z"/>
		</defs>
		<clipPath id="SVGID_5_">
			<use xlink:href="#SVGID_1831_"  overflow="visible"/>
		</clipPath>
		<g clip-path="url(#SVGID_5_)">
			<g>
				<linearGradient id="SVGID_7_" gradientUnits="userSpaceOnUse" x1="-18.0691" y1="-20.0822" x2="27.2583" y2="-20.0822">
					<stop  offset="0" style="stop-color:#D1DBDD"/>
					<stop  offset="1" style="stop-color:#EAEDF0"/>
				</linearGradient>
				<path fill="none" stroke="url(#SVGID_7_)" stroke-miterlimit="10" d="M26.7-33.2l-9.9-19.5L15-52.9l-3,4.6c0,0,1.1,3-2.1,3.1
					l-3.1,4.8l-5.6-0.3l-8,12.2l1.7,3.3l-1.9,3l0,1.6L-17.5-4l0.3,2l0.4-0.6l0.2,1l10.9-17.1l1,0l1.6-2.5l1.5,2.8l-2,3.1l0,1.6
					L-14.2,2.8l0.3,2l0.4-0.6l0.2,1l10.9-17.1l1,0l1.7-2.6l1.4,2.8l-2.1,3.2l0,1.6L-10.9,9.5l0.3,2l0.4-0.6l0.2,1L0.9-5.2l1,0
					l2.4-3.7l6.4,0.2l8-12.3l3-4.7c0,0-1-1.2,0-2.7l-0.3,0l2,0L26.7-33.2z M14.4-33.5c0-0.1-0.1-0.1-0.1-0.2
					c-0.1-0.1-0.1-0.2-0.2-0.4c-0.1-0.2-0.1-0.3-0.2-0.5c0-0.1,0-0.1,0-0.2c0,0,0-0.1,0-0.1c0-0.1,0-0.2,0-0.2c0-0.4,0-0.9,0.1-1.3
					c0.3-1.9,1.5-3.2,2.7-3c0.8,0.1,1.4,1,1.6,2.1c0,0.3,0,0.7-0.1,1c-0.3,2-1.6,3.5-2.9,3.3c0,0-0.1,0-0.1,0
					c-0.1,0-0.3-0.1-0.4-0.2C14.6-33.4,14.5-33.4,14.4-33.5z"/>
			</g>
		</g>
	</g>
</g>
<g>
	<path fill="#662D83" d="M24,15.3c0.8-6.7-0.4-10.9-2.5-12.8l0,0c-3.4-3.2-14.9-3.7-19,0.1C0.7,4.6,0.1,7.4,0,10.9
		c-0.1,3.4-0.2,9.9,5.9,11.6h0l0,2.7c0,0,0,1.1,0.7,1.3c0.8,0.3,1.1-0.2,3.6-3.2c4.1,0.4,7.3-0.5,7.6-0.6
		C18.6,22.4,23.3,21.8,24,15.3L24,15.3z M10.5,21.4c0,0-2.6,3.2-3.4,4.1c-0.3,0.3-0.6,0.2-0.6-0.3c0-0.4,0-4.4,0-4.4
		c-5.1-1.5-4.8-6.9-4.7-9.8C1.9,8.1,2.4,5.7,4,4.1c3.6-3.4,13.7-2.6,16.2-0.2c3.1,2.8,2,10.7,2,10.9c-0.6,5.4-4.5,5.7-5.2,6
		C16.8,20.9,14,21.6,10.5,21.4L10.5,21.4z"/>
	<path fill="#662D83" d="M12,4.8c-0.4,0-0.4,0.7,0,0.7c3.3,0,6,2.3,6,6.5c0,0.4,0.7,0.4,0.6,0h0C18.6,7.4,15.7,4.8,12,4.8L12,4.8z"
		/>
	<path fill="#662D83" d="M16.3,11.3c0,0.4,0.6,0.5,0.6,0c0.1-2.5-1.5-4.6-4.4-4.8c-0.4,0-0.5,0.6,0,0.7C15,7.4,16.4,9.1,16.3,11.3
		L16.3,11.3z"/>
	<path fill="#662D83" d="M15.6,14.1c-0.5-0.3-1.1-0.1-1.3,0.2l-0.5,0.6c-0.2,0.3-0.7,0.3-0.7,0.3c-3.3-0.9-4.2-4.4-4.2-4.4
		s0-0.5,0.3-0.7l0.6-0.5c0.3-0.2,0.5-0.8,0.2-1.4c-0.8-1.5-1.4-2-1.6-2.4C8,5.5,7.6,5.4,7.1,5.7h0c-1,0.6-2,1.6-1.7,2.7
		c0.6,1.1,1.6,4.8,5,7.5c1.6,1.3,4.1,2.6,5.1,2.9l0,0c1,0.3,2.1-0.7,2.6-1.7v0c0.2-0.5,0.2-0.9-0.2-1.2
		C17.3,15.2,16.3,14.5,15.6,14.1L15.6,14.1z"/>
	<path fill="#662D83" d="M13,9c1.1,0.1,1.6,0.6,1.6,1.8c0,0.4,0.7,0.4,0.6,0c-0.1-1.5-0.8-2.3-2.2-2.4C12.6,8.3,12.6,8.9,13,9L13,9z
		"/>
</g>
</svg>
