<svg width="25" height="25" viewBox="0 0 25 25" fill="none" xmlns="http://www.w3.org/2000/svg">
<rect width="25" height="25" rx="6" fill="url(#paint0_linear_32_301)"/>
<g clip-path="url(#clip0_32_301)">
<path d="M3.94702 20.6764L5.19189 16.2074C4.4248 14.8982 4.021 13.4133 4.02108 11.9018C4.02108 7.15114 7.94972 3.28107 12.773 3.28107C15.1157 3.28107 17.3103 4.18084 18.9703 5.80627C19.7851 6.60523 20.4312 7.55523 20.8714 8.60144C21.3115 9.64764 21.5369 10.7693 21.5346 11.9018C21.5346 16.6525 17.6054 20.522 12.7822 20.522C11.3157 20.522 9.87729 20.1589 8.59513 19.4684L3.94702 20.6769V20.6764Z" fill="url(#paint1_linear_32_301)"/>
<path d="M3.63351 20.9852L4.92487 16.3618C4.13122 15.0055 3.71434 13.4672 3.71622 11.9018C3.70703 6.96903 7.7746 2.9632 12.773 2.9632C15.1984 2.9632 17.4762 3.88958 19.1919 5.57945C20.0373 6.40779 20.7074 7.39315 21.1633 8.47841C21.6193 9.56368 21.852 10.7273 21.8481 11.9018C21.8481 16.825 17.7805 20.8308 12.7822 20.8308C11.2605 20.8308 9.77568 20.4581 8.44757 19.7409L3.63351 20.9852ZM8.66 18.1331L8.93622 18.2965C10.098 18.9736 11.423 19.3313 12.773 19.3321C16.9232 19.3321 20.3081 15.9987 20.3081 11.9103C20.3081 9.93028 19.5243 8.0594 18.1038 6.66077C17.4052 5.96884 16.5746 5.41992 15.6597 5.04565C14.7447 4.67137 13.7637 4.47914 12.773 4.48002C8.61351 4.48002 5.22919 7.81396 5.22919 11.9018C5.22919 13.3004 5.62541 14.6724 6.38162 15.8533L6.55676 16.135L5.79135 18.8779L8.65946 18.1331H8.66Z" fill="url(#paint2_linear_32_301)"/>
<path fill-rule="evenodd" clip-rule="evenodd" d="M10.5135 8.15946C10.3476 7.78678 10.1632 7.77773 10.0065 7.77773C9.86811 7.76868 9.72 7.76868 9.56324 7.76868C9.41622 7.76868 9.16703 7.82298 8.95459 8.05032C8.7427 8.27713 8.16162 8.81326 8.16162 9.91215C8.16162 11.0116 8.97351 12.0743 9.08378 12.2196C9.19459 12.365 10.6514 14.69 12.9573 15.5897C14.8762 16.3346 15.2632 16.1892 15.6778 16.1434C16.093 16.0982 17.0151 15.6078 17.2092 15.0808C17.393 14.5633 17.393 14.1091 17.3384 14.0181C17.2827 13.9276 17.1259 13.8727 16.9049 13.7545C16.6741 13.6459 15.5676 13.1007 15.3551 13.0278C15.1432 12.9554 14.9957 12.9192 14.8481 13.1369C14.7005 13.3643 14.267 13.8637 14.1292 14.009C13.9995 14.1544 13.8611 14.1725 13.64 14.0633C13.4092 13.9547 12.6805 13.7183 11.8141 12.9554C11.1405 12.3644 10.6886 11.6292 10.5503 11.4114C10.4211 11.1841 10.5319 11.0659 10.6519 10.9567C10.7535 10.8572 10.8822 10.6937 10.993 10.5665C11.1038 10.4387 11.1405 10.3391 11.2238 10.1938C11.2973 10.0484 11.2605 9.91215 11.2054 9.80354C11.1497 9.70345 10.7162 8.60402 10.5135 8.15893V8.15946Z" fill="white"/>
</g>
<defs>
<linearGradient id="paint0_linear_32_301" x1="22.5" y1="0.416667" x2="1.25" y2="23.75" gradientUnits="userSpaceOnUse">
<stop stop-color="#53CE60"/>
<stop offset="1" stop-color="#2BB741"/>
</linearGradient>
<linearGradient id="paint1_linear_32_301" x1="12.7389" y1="20.6753" x2="12.7389" y2="3.27787" gradientUnits="userSpaceOnUse">
<stop stop-color="#20B038"/>
<stop offset="1" stop-color="#60D66A"/>
</linearGradient>
<linearGradient id="paint2_linear_32_301" x1="12.7389" y1="20.9873" x2="12.7389" y2="2.96586" gradientUnits="userSpaceOnUse">
<stop stop-color="#F9F9F9"/>
<stop offset="1" stop-color="white"/>
</linearGradient>
<clipPath id="clip0_32_301">
<rect width="20" height="19.1667" fill="white" transform="translate(2.5 2.5)"/>
</clipPath>
</defs>
</svg>
