<?xml version="1.0" encoding="utf-8"?>
<!-- Generator: Adobe Illustrator 22.0.1, SVG Export Plug-In . SVG Version: 6.00 Build 0)  -->
<svg version="1.1" id="Слой_1" xmlns="http://www.w3.org/2000/svg" xmlns:xlink="http://www.w3.org/1999/xlink" x="0px" y="0px"
	 viewBox="0 0 637.1 83.9" style="enable-background:new 0 0 637.1 83.9;" xml:space="preserve">
<style type="text/css">
.st0{fill:#FFFFFF;}
	.st1{fill:url(#SVGID_1_);}
	.st2{fill:#FFFFFF;}
	.st3{fill:url(#SVGID_2_);}
</style>
<rect x="-82.1" y="-399" class="st0" width="800" height="800"/>
<g>
	<linearGradient id="SVGID_1_" gradientUnits="userSpaceOnUse" x1="66.084" y1="41.9062" x2="155.2133" y2="41.9062">
		<stop  offset="0" style="stop-color:#31B08F"/>
		<stop  offset="1" style="stop-color:#189CD8"/>
	</linearGradient>
	<path class="st1" d="M104,42.1l-20.6,41H66.1l20.1-40.9L66.1,0.6h17.6L104,42.1z M135,42.3l20.2-41.6h-17.6l-20.5,41.5l20.8,41
		h17.3L135,42.3z"/>
	<path d="M3.7,31.1c1.6-3.7,3.8-7,6.6-9.8s6.1-5,9.9-6.6c3.8-1.6,7.8-2.4,12.1-2.4c3.1,0,6.1,0.5,9,1.4c2.9,0.9,5.5,2.3,8,4
		c2.4,1.7,4.7,3.7,6.6,6.1c2,2.3,3.6,4.9,4.9,7.7l-7.5,5c-1-2.1-2.2-4.2-3.7-6c-1.5-1.9-3.1-3.5-4.9-4.8c-1.8-1.3-3.8-2.4-5.9-3.1
		c-2.1-0.7-4.2-1.1-6.4-1.1c-3,0-5.8,0.6-8.5,1.8s-5,2.8-7,4.8s-3.6,4.3-4.7,6.9c-1.2,2.6-1.8,5.4-1.8,8.3c0,2.9,0.6,5.7,1.8,8.3
		c1.2,2.6,2.8,4.9,4.7,6.8s4.3,3.5,6.9,4.7c2.6,1.2,5.5,1.8,8.4,1.8c2,0,4-0.3,6-0.9c2-0.6,3.8-1.5,5.6-2.6c1.8-1.1,3.4-2.5,4.9-4.1
		c1.5-1.6,2.8-3.3,3.8-5.2l6.6,6.6c-2.9,4.6-6.7,8.3-11.3,11.1s-9.8,4.2-15.5,4.2c-4.3,0-8.3-0.8-12.1-2.4c-3.8-1.6-7.1-3.8-9.9-6.6
		c-2.8-2.8-5-6-6.6-9.8c-1.6-3.7-2.4-7.7-2.4-12S2.1,34.9,3.7,31.1z"/>
	<polygon points="214.4,21.3 214.4,12.7 168,12.7 168,73.6 214.4,73.6 214.4,64.9 177.2,64.9 177.2,21.3 	"/>
	<rect x="183.5" y="38.7" width="30.3" height="8.7"/>
	<polygon points="285.7,12.7 263.1,58.3 240.7,12.7 227,12.7 227,73.6 236.5,73.6 236.5,25.1 260.7,73.6 265.6,73.6 290.2,24.7 
		290.2,73.6 299.6,73.6 299.6,12.7 	"/>
	<polygon points="327.3,73.6 374.7,73.6 344.4,12.7 339.3,12.7 308.7,73.6 319.3,73.6 341.9,28 359.7,64.9 331.6,64.9 	"/>
	<polygon points="369.5,12.7 369.5,21.3 390.9,21.3 390.9,73.6 400.1,73.6 400.1,21.3 421.7,21.3 421.7,12.7 	"/>
	<polygon points="477.9,12.7 443.4,62.1 443.4,12.7 434,12.7 434,73.6 446.4,73.6 481.7,23.9 481.7,73.6 490.9,73.6 490.9,12.7 	"/>
	<rect x="503.4" y="12.7" width="9.3" height="60.9"/>
	<polygon points="548.5,43.4 563.4,12.7 553,12.7 540.1,39 518.5,39 518.5,47.7 540.1,47.7 553.2,73.6 563.4,73.6 	"/>
	<polygon points="589,73.6 636.4,73.6 606,12.7 601,12.7 570.4,73.6 581,73.6 603.5,28 621.4,64.9 593.3,64.9 	"/>
</g>
</svg>
