<?xml version="1.0" encoding="utf-8"?>
<!-- Generator: Adobe Illustrator 25.2.0, SVG Export Plug-In . SVG Version: 6.00 Build 0)  -->
<svg version="1.1" id="Capa_1" xmlns="http://www.w3.org/2000/svg" xmlns:xlink="http://www.w3.org/1999/xlink" x="0px" y="0px"
	 viewBox="0 0 220.3 220.3" style="enable-background:new 0 0 220.3 220.3;" xml:space="preserve">
<path d="M110.2,0C49.4,0,0,49.4,0,110.2s49.4,110.2,110.2,110.2s110.2-49.4,110.2-110.2S170.9,0,110.2,0z M110.2,201.7
	c-50.5,0-91.5-41-91.5-91.5s41-91.5,91.5-91.5s91.5,41,91.5,91.5S160.6,201.7,110.2,201.7z M145.2,93.8c0-22.2-15.6-31.1-40.7-31.1
	H82.2v95.8h15.4l0.2-28.1h21.6c0.9,0-5.2,0-4.2-0.1l19.6,28.1h20.6l-25-34.3C140.6,117.9,145.2,107.1,145.2,93.8z M109.5,114.1H97.6
	v-35l11.8,0c23.2,0,22.3,12.3,22.3,18.7C131.7,103.4,128.9,114.1,109.5,114.1z"/>
</svg>
